<svg aria-hidden="true" style="position: absolute; width: 0; height: 0; overflow: hidden;" version="1.1" xmlns="http://www.w3.org/2000/svg" xmlns:xlink="http://www.w3.org/1999/xlink">
<defs>
<symbol id="icon-number" viewBox="0 0 32 32">
<path d="M16 3c-7.18 0-13 5.82-13 13s5.82 13 13 13 13-5.82 13-13-5.82-13-13-13zM16 27c-6.075 0-11-4.925-11-11s4.925-11 11-11 11 4.925 11 11-4.925 11-11 11zM14.828 12.709c-0.589 0.458-1.134 0.77-1.635 0.934v1.742c0.953-0.314 1.781-0.799 2.484-1.455v7.111h2.047v-10h-1.686c-0.218 0.612-0.622 1.209-1.21 1.668z"></path>
</symbol>
<symbol id="icon-number1" viewBox="0 0 32 32">
<path d="M16 3c-7.18 0-13 5.82-13 13s5.82 13 13 13 13-5.82 13-13-5.82-13-13-13zM16 27c-6.075 0-11-4.925-11-11s4.925-11 11-11 11 4.925 11 11-4.925 11-11 11zM17.564 17.777c0.607-0.556 1.027-0.982 1.26-1.278 0.351-0.447 0.607-0.875 0.77-1.282 0.161-0.408 0.242-0.838 0.242-1.289 0-0.793-0.283-1.457-0.848-1.99s-1.342-0.8-2.331-0.8c-0.902 0-1.654 0.23-2.256 0.69s-0.96 1.218-1.073 2.275l1.914 0.191c0.036-0.56 0.173-0.96 0.41-1.201s0.555-0.361 0.956-0.361c0.405 0 0.723 0.115 0.952 0.345 0.23 0.23 0.346 0.56 0.346 0.988 0 0.387-0.133 0.779-0.396 1.176-0.195 0.287-0.727 0.834-1.592 1.64-1.076 0.998-1.796 1.799-2.16 2.403s-0.584 1.242-0.656 1.917h6.734v-1.781h-3.819c0.101-0.173 0.231-0.351 0.394-0.534 0.16-0.183 0.545-0.552 1.153-1.109z"></path>
</symbol>
<symbol id="icon-number2" viewBox="0 0 32 32">
<path d="M16 3c-7.18 0-13 5.82-13 13s5.82 13 13 13 13-5.82 13-13-5.82-13-13-13zM16 27c-6.075 0-11-4.925-11-11s4.925-11 11-11 11 4.925 11 11-4.925 11-11 11zM17.248 15.219c0.963-0.525 1.443-1.228 1.443-2.108 0-0.621-0.234-1.177-0.705-1.67-0.571-0.602-1.33-0.903-2.275-0.903-0.553 0-1.052 0.104-1.497 0.311s-0.792 0.493-1.042 0.855c-0.248 0.362-0.435 0.847-0.559 1.454l1.773 0.302c0.051-0.439 0.193-0.772 0.426-1.001s0.516-0.343 0.845-0.343c0.334 0 0.603 0.101 0.804 0.301 0.201 0.201 0.302 0.471 0.302 0.809 0 0.398-0.138 0.716-0.413 0.957-0.273 0.24-0.673 0.353-1.195 0.339l-0.213 1.565c0.344-0.096 0.638-0.144 0.885-0.144 0.374 0 0.691 0.141 0.952 0.423s0.391 0.665 0.391 1.147c0 0.509-0.136 0.914-0.407 1.214s-0.607 0.45-1.004 0.45c-0.37 0-0.686-0.125-0.945-0.375-0.261-0.25-0.42-0.612-0.479-1.086l-1.859 0.226c0.096 0.843 0.442 1.525 1.040 2.047s1.35 0.782 2.258 0.782c0.957 0 1.758-0.309 2.401-0.929s0.965-1.368 0.965-2.247c0-0.605-0.172-1.122-0.515-1.55-0.346-0.427-0.804-0.703-1.377-0.826z"></path>
</symbol>
<symbol id="icon-number3" viewBox="0 0 32 32">
<path d="M16 3c-7.18 0-13 5.82-13 13s5.82 13 13 13 13-5.82 13-13-5.82-13-13-13zM16 27c-6.075 0-11-4.925-11-11s4.925-11 11-11 11 4.925 11 11-4.925 11-11 11zM18.176 11.337h-1.613l-4.354 6.374v1.674h4.109v2.015h1.858v-2.016h1.243v-1.68h-1.243v-6.367zM16.317 17.705h-2.309l2.309-3.434v3.434z"></path>
</symbol>
<symbol id="icon-number4" viewBox="0 0 32 32">
<path d="M16 3c-7.18 0-13 5.82-13 13s5.82 13 13 13 13-5.82 13-13-5.82-13-13-13zM16 27c-6.075 0-11-4.925-11-11s4.925-11 11-11 11 4.925 11 11-4.925 11-11 11zM16.259 13.889c-0.447 0-0.886 0.107-1.313 0.321l0.305-1.704h3.622v-1.797h-5.078l-0.985 5.219 1.557 0.227c0.438-0.49 0.932-0.734 1.484-0.734 0.442 0 0.801 0.154 1.077 0.462s0.414 0.77 0.414 1.386c0 0.657-0.14 1.148-0.417 1.475s-0.618 0.489-1.020 0.489c-0.351 0-0.661-0.126-0.93-0.379-0.27-0.252-0.431-0.595-0.486-1.027l-1.913 0.198c0.114 0.839 0.462 1.506 1.046 2.003 0.584 0.496 1.338 0.744 2.264 0.744 1.158 0 2.062-0.441 2.715-1.327 0.479-0.647 0.717-1.384 0.717-2.21 0-0.989-0.296-1.794-0.889-2.415-0.595-0.621-1.318-0.931-2.17-0.931z"></path>
</symbol>
<symbol id="icon-number5" viewBox="0 0 32 32">
<path d="M16 3c-7.18 0-13 5.82-13 13s5.82 13 13 13 13-5.82 13-13-5.82-13-13-13zM16 27c-6.075 0-11-4.925-11-11s4.925-11 11-11 11 4.925 11 11-4.925 11-11 11zM16.52 14.685c-0.711 0-1.305 0.282-1.784 0.848 0.073-1.151 0.249-1.908 0.529-2.271s0.622-0.545 1.028-0.545c0.305 0 0.553 0.091 0.744 0.273s0.31 0.463 0.355 0.845l1.859-0.205c-0.137-0.81-0.455-1.427-0.954-1.853s-1.129-0.638-1.89-0.638c-1.085 0-1.967 0.405-2.646 1.217-0.679 0.811-1.018 2.135-1.018 3.972 0 1.791 0.325 3.080 0.978 3.866 0.651 0.786 1.483 1.18 2.496 1.18 0.944 0 1.717-0.311 2.318-0.931 0.603-0.621 0.903-1.445 0.903-2.472 0-0.968-0.287-1.757-0.858-2.368-0.571-0.613-1.258-0.918-2.060-0.918zM17.201 19.36c-0.236 0.278-0.533 0.417-0.888 0.417-0.368 0-0.696-0.17-0.983-0.51s-0.43-0.823-0.43-1.449c0-0.566 0.127-0.995 0.382-1.285s0.567-0.436 0.936-0.436c0.382 0 0.701 0.152 0.956 0.456s0.383 0.782 0.383 1.436c0 0.636-0.119 1.093-0.356 1.371z"></path>
</symbol>
<symbol id="icon-number6" viewBox="0 0 32 32">
<path d="M16 3c-7.18 0-13 5.82-13 13s5.82 13 13 13 13-5.82 13-13-5.82-13-13-13zM16 27c-6.075 0-11-4.925-11-11s4.925-11 11-11 11 4.925 11 11-4.925 11-11 11zM12.744 13.291h4.371c-0.902 1.136-1.623 2.425-2.162 3.867-0.54 1.441-0.826 2.856-0.857 4.243h1.852c-0.005-0.885 0.14-1.889 0.434-3.012 0.293-1.124 0.721-2.185 1.28-3.184 0.56-0.998 1.11-1.764 1.653-2.297v-1.398h-6.57v1.781z"></path>
</symbol>
<symbol id="icon-number7" viewBox="0 0 32 32">
<path d="M16 3c-7.18 0-13 5.82-13 13s5.82 13 13 13 13-5.82 13-13-5.82-13-13-13zM16 27c-6.075 0-11-4.925-11-11s4.925-11 11-11 11 4.925 11 11-4.925 11-11 11zM17.206 15.393c0.437-0.191 0.776-0.468 1.018-0.831s0.362-0.776 0.362-1.241c0-0.748-0.264-1.365-0.789-1.853-0.527-0.487-1.267-0.731-2.219-0.731-0.962 0-1.703 0.244-2.225 0.731s-0.783 1.105-0.783 1.853c0 0.438 0.113 0.84 0.338 1.207 0.227 0.367 0.587 0.655 1.084 0.865-0.578 0.247-1.001 0.597-1.27 1.051s-0.402 0.953-0.402 1.496c0 0.986 0.357 1.763 1.072 2.328 0.605 0.479 1.364 0.719 2.275 0.719 0.979 0 1.764-0.29 2.354-0.87 0.59-0.579 0.885-1.332 0.885-2.259 0-0.562-0.145-1.057-0.434-1.486s-0.71-0.755-1.266-0.979zM14.719 12.589c0.219-0.219 0.512-0.328 0.881-0.328 0.355 0 0.641 0.108 0.857 0.325s0.324 0.505 0.324 0.865c0 0.383-0.109 0.683-0.328 0.899s-0.51 0.325-0.874 0.325c-0.36 0-0.647-0.107-0.864-0.321-0.216-0.214-0.324-0.513-0.324-0.896 0-0.36 0.109-0.65 0.328-0.869zM16.618 19.013c-0.261 0.285-0.589 0.428-0.985 0.428-0.405 0-0.744-0.147-1.016-0.444s-0.406-0.711-0.406-1.24c0-0.379 0.115-0.731 0.346-1.056s0.58-0.486 1.049-0.486c0.406 0 0.741 0.143 1.006 0.428 0.264 0.286 0.396 0.664 0.396 1.133 0 0.538-0.13 0.951-0.39 1.237z"></path>
</symbol>
<symbol id="icon-number8" viewBox="0 0 32 32">
<path d="M16 3c-7.18 0-13 5.82-13 13s5.82 13 13 13 13-5.82 13-13-5.82-13-13-13zM16 27c-6.075 0-11-4.925-11-11s4.925-11 11-11 11 4.925 11 11-4.925 11-11 11zM15.609 11.337c-0.935 0-1.704 0.311-2.309 0.933s-0.905 1.442-0.905 2.458c0 0.976 0.286 1.768 0.857 2.376s1.253 0.913 2.041 0.913c0.725 0 1.328-0.281 1.812-0.842-0.077 1.149-0.255 1.906-0.532 2.271-0.278 0.364-0.614 0.547-1.011 0.547-0.314 0-0.566-0.092-0.758-0.274s-0.31-0.464-0.355-0.843l-1.858 0.205c0.137 0.833 0.446 1.459 0.929 1.877 0.483 0.419 1.117 0.629 1.9 0.629 1.090 0 1.973-0.406 2.652-1.219 0.679-0.812 1.019-2.135 1.019-3.968 0-1.802-0.326-3.096-0.978-3.883s-1.487-1.18-2.504-1.18zM16.555 16.173c-0.252 0.292-0.562 0.438-0.931 0.438-0.382 0-0.701-0.151-0.956-0.455s-0.382-0.779-0.382-1.426c0-0.638 0.117-1.098 0.351-1.378s0.529-0.42 0.885-0.42c0.373 0 0.701 0.171 0.986 0.513 0.284 0.342 0.427 0.823 0.427 1.443 0 0.565-0.126 0.993-0.38 1.285z"></path>
</symbol>
<symbol id="icon-number9" viewBox="0 0 32 32">
<path d="M16 3c-7.18 0-13 5.82-13 13s5.82 13 13 13 13-5.82 13-13-5.82-13-13-13zM16 27c-6.075 0-11-4.925-11-11s4.925-11 11-11 11 4.925 11 11-4.925 11-11 11zM15.994 10.737c-0.973 0-1.729 0.342-2.272 1.026-0.657 0.83-0.985 2.188-0.985 4.074 0 1.923 0.299 3.26 0.896 4.010s1.385 1.124 2.361 1.124c0.971 0 1.729-0.342 2.271-1.025 0.657-0.829 0.986-2.192 0.986-4.088 0-1.9-0.326-3.261-0.979-4.082-0.547-0.692-1.307-1.039-2.278-1.039zM17.045 18.359c-0.102 0.383-0.243 0.648-0.426 0.797-0.184 0.148-0.393 0.222-0.625 0.222-0.234 0-0.441-0.073-0.622-0.219s-0.331-0.438-0.45-0.878-0.178-1.248-0.178-2.423 0.066-2.012 0.199-2.508c0.1-0.383 0.242-0.648 0.426-0.796 0.183-0.148 0.391-0.222 0.625-0.222 0.232 0 0.439 0.074 0.621 0.222s0.33 0.442 0.449 0.882 0.18 1.248 0.18 2.423-0.066 2.008-0.199 2.5z"></path>
</symbol>
<symbol id="icon-calendar" viewBox="0 0 32 32">
<path d="M27 31h-22c-1.104 0-2-0.896-2-2v-22c0-1.105 0.896-2 2-2h2v1c0 1.657 1.343 3 3 3s3-1.343 3-3v-1h6v1c0 1.657 1.344 3 3 3s3-1.343 3-3v-1h2c1.104 0 2 0.895 2 2v22c0 1.104-0.896 2-2 2zM27 12h-22v17h22v-17zM10 17h-3v-3h3v3zM10 22h-3v-3h3v3zM10 27h-3v-3h3v3zM15 17h-3v-3h3v3zM15 22h-3v-3h3v3zM15 27h-3v-3h3v3zM20 17h-3v-3h3v3zM20 22h-3v-3h3v3zM20 27h-3v-3h3v3zM25 17h-3v-3h3v3zM25 22h-3v-3h3v3zM25 27h-3v-3h3v3zM21.969 8c-1.088 0-1.969-0.882-1.969-1.969v-2.062c0-1.088 0.881-1.969 1.969-1.969s1.969 0.881 1.969 1.969v2.062c0 1.087-0.881 1.969-1.969 1.969zM9.969 8c-1.088 0-1.969-0.882-1.969-1.969v-2.062c0-1.088 0.881-1.969 1.969-1.969s1.969 0.881 1.969 1.969v2.062c0 1.087-0.882 1.969-1.969 1.969z"></path>
</symbol>
<symbol id="icon-calendar1" viewBox="0 0 32 32">
<path d="M28 30h-24c-1.104 0-2-0.896-2-2v-21c0-1.104 0.896-2 2-2h2v1c0 1.657 1.343 3 3 3s3-1.343 3-3v-1h8v1c0 1.657 1.344 3 3 3s3-1.343 3-3v-1h2c1.104 0 2 0.896 2 2v21c0 1.104-0.896 2-2 2zM28 12h-24v16h24v-16zM13.069 19.829c0.197-0.314 0.296-0.646 0.296-0.993 0-0.773-0.416-1.16-1.248-1.16-0.723 0-1.414 0.287-2.074 0.861v-1.629c0.73-0.473 1.555-0.709 2.473-0.709 0.859 0 1.53 0.216 2.013 0.647s0.724 1.015 0.724 1.749c0 0.98-0.588 1.994-1.764 3.041l-1.729 1.535v0.035h3.41v1.535h-5.531v-1.441l2.408-2.303c0.484-0.464 0.825-0.853 1.022-1.168zM19.837 23.166c0.264-0.203 0.396-0.486 0.396-0.85 0-0.375-0.163-0.664-0.489-0.867s-0.774-0.305-1.345-0.305h-0.756v-1.418h0.697c1.094 0 1.641-0.363 1.641-1.090 0-0.684-0.42-1.025-1.26-1.025-0.562 0-1.109 0.182-1.641 0.545v-1.512c0.59-0.297 1.277-0.445 2.062-0.445 0.859 0 1.528 0.193 2.007 0.58s0.718 0.889 0.718 1.506c0 1.098-0.557 1.785-1.67 2.062v0.029c0.594 0.074 1.062 0.29 1.406 0.647s0.516 0.796 0.516 1.315c0 0.785-0.287 1.406-0.861 1.863s-1.367 0.686-2.379 0.686c-0.867 0-1.572-0.141-2.115-0.422v-1.611c0.562 0.41 1.219 0.615 1.969 0.615 0.472 0.002 0.84-0.1 1.104-0.303zM22.969 8c-1.088 0-1.969-0.881-1.969-1.969v-2.062c0-1.088 0.881-1.969 1.969-1.969s1.969 0.881 1.969 1.969v2.062c0 1.088-0.881 1.969-1.969 1.969zM8.969 8c-1.088 0-1.969-0.881-1.969-1.969v-2.062c0-1.088 0.881-1.969 1.969-1.969s1.969 0.881 1.969 1.969v2.062c0 1.088-0.882 1.969-1.969 1.969z"></path>
</symbol>
<symbol id="icon-phone" viewBox="0 0 32 32">
<path d="M21.999 4h-12c-1.104 0-1.999 0.896-1.999 2v20c0 1.104 0.895 2 1.999 2h12c1.105 0 2.001-0.896 2.001-2v-20c0-1.104-0.896-2-2.001-2zM13 5h5l0.062 1h-5.062v-1zM15.979 26.5c-0.552 0-1-0.447-1-1s0.448-1 1-1c0.553 0 1 0.447 1 1s-0.448 1-1 1zM21.999 23h-12l0.021-16h11.979v16z"></path>
</symbol>
<symbol id="icon-drink" viewBox="0 0 32 32">
<path d="M23.055 8.906c0.557 0 1.008 0.451 1.008 1.008l-1.827 20.093c0 0.557-0.451 1.008-1.008 1.008h-10.457c-0.557 0-1.008-0.451-1.008-1.008l-1.825-20.093c0-0.557 0.451-1.008 1.008-1.008h9.010l1.066-5.436 4.839-2.485-0.348 1.298-3.592 1.801-0.938 4.822h4.072zM17.514 15.961h4.029l-1.134 13.038h-8.818l-1.134-13.038h6.029l1.259-6.047h-8.8l1.826 20.093h10.456l1.827-20.093h-4.282l-1.258 6.047z"></path>
</symbol>
<symbol id="icon-drink1" viewBox="0 0 32 32">
<path d="M25 8.918h-18.045l0.018-1.942h1.441l3.052-3.007h9.148l2.989 3.007h1.441l-0.044 1.942zM17.544 5.974h-3.008v1.002h3.008v-1.002zM23.656 13.994h-15.246l-0.39-4.010h16.040l-0.404 4.010zM23.245 22.953h-14.474l-0.751-7.957h16.040l-0.815 7.957zM22.243 28.029c0 0.553-0.449 1.002-1.003 1.002h-10.463c-0.554 0-1.003-0.449-1.003-1.002l-0.396-4.073h13.274l-0.409 4.073z"></path>
</symbol>
<symbol id="icon-drink2" viewBox="0 0 32 32">
<path d="M26.562 8.021l-10.496 9.213v11.939l5.841 2.827h-13.689l5.842-2.826v-11.94l-10.622-9.213h16.202l3.243-5.619 0.872 0.503-2.953 5.115h5.76zM24.111 8.965l-3.863 0.015-1.19 2.062h2.745l2.308-2.077zM16.066 15.069c0.591 0 1.069-0.479 1.069-1.070s-0.479-1.070-1.069-1.070-1.070 0.479-1.070 1.070c0 0.592 0.48 1.070 1.070 1.070zM5.89 8.965l2.327 2.077h9.679l1.188-2.057-13.194-0.020z"></path>
</symbol>
<symbol id="icon-coffee" viewBox="0 0 32 32">
<path d="M29.984 15.548c-0.378-3.639-4.063-3.618-5.977-3.553 0.009-0.553 0.015-0.999 0.015-0.999l-22.027-0.007c0 0 0 3.014 0 3.089 0 4.281 2.445 7.984 6.011 9.809v1.068h10.019v-1.068c1-0.512 1.897-1.184 2.691-1.961 4.915-1.176 10.070-2.873 9.268-6.378zM22.25 20.066c1.123-1.725 1.786-3.775 1.786-5.988 0 0.017 0.001-0.029 0.002-0.116 1.785-0.059 3.755-0.237 4.201 1.54 0.448 1.955-2.817 3.547-5.989 4.564zM8.83 6.99c0 1-1.64 2.065-1.64 2.065s3.214-0.574 3.214-2.074-3.187-0.5-3.187-1.625 1.577-2.19 1.577-2.19-3.025 0.637-3.025 2.199 3.061 0.625 3.061 1.625zM13.83 7.99c0 1-1.64 2.065-1.64 2.065s3.214-0.574 3.214-2.074-3.187-0.5-3.187-1.625 1.577-2.19 1.577-2.19-3.026 0.637-3.026 2.199 3.062 0.625 3.062 1.625zM17.83 6.99c0 1-1.64 2.065-1.64 2.065s3.214-0.574 3.214-2.074-3.187-0.5-3.187-1.625 1.577-2.19 1.577-2.19-3.026 0.637-3.026 2.199 3.062 0.625 3.062 1.625zM1.933 25.928c0 1.381 4.925 2.5 11 2.5s11-1.119 11-2.5c0 0.029-22 0.029-22 0z"></path>
</symbol>
<symbol id="icon-mug" viewBox="0 0 32 32">
<path d="M25.761 25.005h-2.724v2.164c0 1.546-1.378 2.798-2.924 2.798h-10.308c-1.546 0-2.799-1.252-2.799-2.798v-15.1h2.998v14.905h1.988l0.002-14.905c0.534 0.385 1.334 0.671 2.008 0.823v14.083h1.988v-14.025c0.745-0.123 1.428-0.403 2.016-0.807v14.832h1.988v-14.906h5.766c1.236 0 2.239 1.002 2.239 2.239v8.457c0.001 1.237-1.002 2.24-2.238 2.24zM25.991 14.010h-2.955v8.985h2.955v-8.985zM21.222 11.142c-0.979 0-1.863-0.391-2.517-1.021-0.812 1.147-2.142 1.902-3.653 1.902-1.457 0-2.738-0.707-3.557-1.784-0.648 0.599-1.508 0.973-2.46 0.973-1.755 0-3.219-1.243-3.562-2.896-0.534-0.35-0.887-0.952-0.887-1.637 0-1.082 0.877-1.959 1.959-1.959 0.080 0 0.157 0.014 0.234 0.023 0.605-0.481 1.359-0.785 2.189-0.801 0.373-1.106 1.408-1.909 2.641-1.909 0.949 0 1.784 0.475 2.291 1.197 0.368-0.1 0.751-0.162 1.151-0.162 0.418 0 0.816 0.070 1.199 0.179 0.505-0.732 1.348-1.214 2.304-1.214 1.207 0 2.226 0.768 2.619 1.838 0.017 0 0.031-0.005 0.048-0.005 2.010 0 3.639 1.629 3.639 3.638s-1.629 3.638-3.638 3.638z"></path>
</symbol>
<symbol id="icon-checkmark" viewBox="0 0 32 32">
<path d="M16 3c-7.18 0-13 5.82-13 13s5.82 13 13 13 13-5.82 13-13-5.82-13-13-13zM23.258 12.307l-9.486 9.485c-0.238 0.237-0.623 0.237-0.861 0l-0.191-0.191-0.001 0.001-5.219-5.256c-0.238-0.238-0.238-0.624 0-0.862l1.294-1.293c0.238-0.238 0.624-0.238 0.862 0l3.689 3.716 7.756-7.756c0.238-0.238 0.624-0.238 0.862 0l1.294 1.294c0.239 0.237 0.239 0.623 0.001 0.862z"></path>
</symbol>
<symbol id="icon-checkmark1" viewBox="0 0 32 32">
<path d="M21.82 13.030l-1.002-1.002c-0.185-0.185-0.484-0.185-0.668 0l-6.014 6.013-2.859-2.882c-0.186-0.185-0.484-0.185-0.67 0l-1.002 1.003c-0.185 0.185-0.185 0.484 0 0.668l4.193 4.223c0.185 0.184 0.484 0.184 0.668 0l7.354-7.354c0.186-0.185 0.186-0.484 0-0.669zM16 3c-7.18 0-13 5.82-13 13s5.82 13 13 13 13-5.82 13-13-5.82-13-13-13zM16 26c-5.522 0-10-4.478-10-10 0-5.523 4.478-10 10-10 5.523 0 10 4.477 10 10 0 5.522-4.477 10-10 10z"></path>
</symbol>
<symbol id="icon-cancel" viewBox="0 0 32 32">
<path d="M16 29c-7.18 0-13-5.82-13-13s5.82-13 13-13 13 5.82 13 13-5.82 13-13 13zM21.961 12.209c0.244-0.244 0.244-0.641 0-0.885l-1.328-1.327c-0.244-0.244-0.641-0.244-0.885 0l-3.761 3.761-3.761-3.761c-0.244-0.244-0.641-0.244-0.885 0l-1.328 1.327c-0.244 0.244-0.244 0.641 0 0.885l3.762 3.762-3.762 3.76c-0.244 0.244-0.244 0.641 0 0.885l1.328 1.328c0.244 0.244 0.641 0.244 0.885 0l3.761-3.762 3.761 3.762c0.244 0.244 0.641 0.244 0.885 0l1.328-1.328c0.244-0.244 0.244-0.641 0-0.885l-3.762-3.76 3.762-3.762z"></path>
</symbol>
<symbol id="icon-cancel1" viewBox="0 0 32 32">
<path d="M16 29c-7.18 0-13-5.82-13-13s5.82-13 13-13 13 5.82 13 13-5.82 13-13 13zM16 6c-5.522 0-10 4.478-10 10s4.478 10 10 10c5.523 0 10-4.478 10-10s-4.477-10-10-10zM20.537 19.535l-1.014 1.014c-0.186 0.186-0.488 0.186-0.675 0l-2.87-2.87-2.87 2.87c-0.187 0.186-0.488 0.186-0.675 0l-1.014-1.014c-0.186-0.186-0.186-0.488 0-0.675l2.871-2.869-2.871-2.87c-0.186-0.187-0.186-0.489 0-0.676l1.014-1.013c0.187-0.187 0.488-0.187 0.675 0l2.87 2.87 2.87-2.87c0.187-0.187 0.489-0.187 0.675 0l1.014 1.013c0.186 0.187 0.186 0.489 0 0.676l-2.871 2.87 2.871 2.869c0.186 0.187 0.186 0.49 0 0.675z"></path>
</symbol>
<symbol id="icon-notice" viewBox="0 0 32 32">
<path d="M15.5 3c-7.456 0-13.5 6.044-13.5 13.5s6.044 13.5 13.5 13.5 13.5-6.044 13.5-13.5-6.044-13.5-13.5-13.5zM15.5 27c-5.799 0-10.5-4.701-10.5-10.5s4.701-10.5 10.5-10.5 10.5 4.701 10.5 10.5-4.701 10.5-10.5 10.5zM15.5 10c-0.828 0-1.5 0.671-1.5 1.5v5.062c0 0.828 0.672 1.5 1.5 1.5s1.5-0.672 1.5-1.5v-5.062c0-0.829-0.672-1.5-1.5-1.5zM15.5 20c-0.828 0-1.5 0.672-1.5 1.5s0.672 1.5 1.5 1.5 1.5-0.672 1.5-1.5-0.672-1.5-1.5-1.5z"></path>
</symbol>
<symbol id="icon-cog" viewBox="0 0 32 32">
<path d="M25.995 19.068h-1.324c-0.215 0.779-0.523 1.518-0.918 2.203l1.224 1.223c0.783 0.783 0.783 2.053 0 2.836l-0.709 0.709c-0.783 0.783-2.053 0.783-2.836 0l-1.232-1.231c-0.683 0.389-1.419 0.692-2.194 0.903v1.284c0 1.107-0.897 2.005-2.005 2.005h-1.002c-1.107 0-2.006-0.897-2.006-2.005v-1.284c-0.774-0.211-1.511-0.515-2.194-0.903l-1.231 1.231c-0.782 0.783-2.052 0.783-2.835 0l-0.71-0.709c-0.783-0.783-0.783-2.053 0-2.836l1.224-1.223c-0.395-0.686-0.703-1.424-0.919-2.203h-1.323c-1.108 0-2.005-0.897-2.005-2.004v-1.003c0-1.107 0.897-2.005 2.005-2.005h1.308c0.207-0.771 0.503-1.505 0.887-2.186l-1.177-1.176c-0.783-0.783-0.783-2.053 0-2.836l0.709-0.708c0.783-0.783 2.053-0.783 2.835 0l1.153 1.153c0.706-0.411 1.468-0.731 2.272-0.95v-1.348c0.001-1.108 0.9-2.005 2.007-2.005h1.002c1.107 0 2.005 0.897 2.005 2.005v1.347c0.806 0.22 1.567 0.54 2.272 0.951l1.153-1.153c0.783-0.783 2.053-0.783 2.836 0l0.709 0.708c0.783 0.783 0.783 2.053 0 2.836l-1.176 1.176c0.384 0.681 0.68 1.415 0.888 2.187h1.308c1.107 0 2.005 0.898 2.005 2.005v1.003c-0.001 1.106-0.898 2.003-2.006 2.003zM15.5 11.080c-3.045 0-5.514 2.469-5.514 5.514s2.469 5.514 5.514 5.514 5.514-2.469 5.514-5.514-2.469-5.514-5.514-5.514zM15.5 19.037c-1.384 0-2.507-1.121-2.507-2.506 0-1.384 1.123-2.506 2.507-2.506s2.506 1.122 2.506 2.506c0 1.385-1.122 2.506-2.506 2.506z"></path>
</symbol>
<symbol id="icon-cogs" viewBox="0 0 32 32">
<path d="M21.268 22.039l0.709-0.709c0.783-0.783 0.783-2.053 0-2.836l-1.224-1.223c0.394-0.686 0.703-1.424 0.918-2.203h1.324c1.107 0 2.005-0.898 2.005-2.005v-1.002c0-1.107-0.897-2.005-2.005-2.005h-1.308c-0.208-0.771-0.503-1.505-0.887-2.186l1.177-1.176c0.783-0.783 0.783-2.053 0-2.836l-0.709-0.708c-0.783-0.783-2.053-0.783-2.836 0l-1.153 1.153c-0.705-0.411-1.467-0.731-2.272-0.951v-1.347c-0.001-1.108-0.899-2.005-2.006-2.005h-1.002c-1.107 0-2.006 0.897-2.006 2.005v1.347c-0.805 0.22-1.566 0.54-2.272 0.951l-1.154-1.154c-0.782-0.783-2.052-0.783-2.835 0l-0.709 0.708c-0.783 0.783-0.783 2.053 0 2.836l1.176 1.177c-0.383 0.681-0.68 1.415-0.887 2.187h-1.307c-1.108-0.001-2.005 0.897-2.005 2.005v1.002c0 1.107 0.897 2.005 2.005 2.005h1.323c0.216 0.779 0.524 1.517 0.919 2.203l-1.224 1.223c-0.783 0.783-0.783 2.053 0 2.836l0.709 0.709c0.783 0.783 2.053 0.783 2.835 0l1.231-1.231c0.684 0.389 1.419 0.692 2.194 0.903v1.284c0 1.106 0.898 2.005 2.006 2.005h1.002c1.107 0 2.005-0.898 2.005-2.005v-1.284c0.775-0.211 1.512-0.515 2.194-0.903l1.231 1.231c0.785 0.782 2.054 0.782 2.838-0.001zM12.5 18.107c-3.045 0-5.514-2.468-5.514-5.514s2.469-5.514 5.514-5.514 5.514 2.469 5.514 5.514c0 3.046-2.469 5.514-5.514 5.514zM12.5 10.025c-1.385 0-2.507 1.122-2.507 2.506s1.122 2.506 2.507 2.506c1.384 0 2.506-1.122 2.506-2.506s-1.122-2.506-2.506-2.506zM25.062 28.862c-0.672 0-1.216 0.544-1.216 1.216 0 0.671 0.544 1.215 1.216 1.215 0.671 0 1.216-0.544 1.216-1.215 0-0.672-0.545-1.216-1.216-1.216zM30.152 28.877h-0.634c-0.101-0.374-0.245-0.73-0.431-1.061l0.57-0.57c0.38-0.38 0.38-0.996 0-1.375l-0.344-0.344c-0.38-0.38-0.995-0.38-1.375 0l-0.56 0.559c-0.342-0.199-0.712-0.354-1.102-0.461v-0.652c0-0.537-0.436-0.973-0.973-0.973h-0.486c-0.537 0-0.973 0.436-0.973 0.973v0.652c-0.391 0.107-0.76 0.262-1.102 0.461l-0.56-0.559c-0.38-0.38-0.996-0.38-1.375 0l-0.344 0.344c-0.38 0.379-0.38 0.995 0 1.375l0.57 0.57c-0.187 0.33-0.33 0.687-0.431 1.061h-0.634c-0.537 0-0.973 0.436-0.973 0.973v0.486c0 0.537 0.436 0.973 0.973 0.973h0.642c0.104 0.377 0.254 0.735 0.445 1.068l-0.593 0.593c-0.38 0.38-0.38 0.995 0 1.376l0.344 0.344c0.379 0.379 0.995 0.379 1.375 0l0.597-0.598c0.332 0.188 0.688 0.336 1.064 0.438v0.623c0 0.537 0.436 0.973 0.973 0.973h0.486c0.537 0 0.973-0.436 0.973-0.973v-0.623c0.376-0.102 0.732-0.249 1.063-0.438l0.598 0.598c0.38 0.379 0.995 0.379 1.375 0l0.344-0.344c0.38-0.381 0.38-0.996 0-1.376l-0.593-0.593c0.19-0.333 0.341-0.691 0.445-1.068h0.642c0.537 0 0.973-0.436 0.973-0.973v-0.486c0.004-0.538-0.432-0.973-0.969-0.973zM25.062 32.782c-1.477 0-2.674-1.197-2.674-2.675 0-1.477 1.197-2.674 2.674-2.674s2.674 1.197 2.674 2.674c0 1.478-1.197 2.675-2.674 2.675z"></path>
</symbol>
<symbol id="icon-cog1" viewBox="0 0 32 32">
<path d="M26.573 14.5h1.927v3h-1.927c-0.131 0.956-0.374 1.876-0.734 2.737l1.669 0.964-1.5 2.598-1.698-0.98c-0.583 0.736-1.26 1.392-2.011 1.958l1 1.731-2.598 1.5-1.021-1.767c-0.849 0.331-1.745 0.562-2.681 0.673v2.086h-3v-2.143c-0.912-0.141-1.791-0.381-2.614-0.731l-1.087 1.882-2.598-1.5 1.113-1.928c-0.697-0.559-1.319-1.203-1.862-1.913l-1.961 1.132-1.5-2.598 1.979-1.143c-0.321-0.811-0.546-1.668-0.668-2.559h-2.301v-3h2.302c0.122-0.892 0.347-1.749 0.668-2.559l-1.979-1.143 1.5-2.598 1.961 1.132c0.543-0.71 1.165-1.354 1.862-1.914l-1.113-1.925 2.598-1.5 1.087 1.882c0.823-0.35 1.702-0.591 2.614-0.731v-2.143h3v2.085c0.936 0.111 1.832 0.342 2.681 0.673l1.021-1.767 2.598 1.5-1 1.732c0.751 0.566 1.428 1.222 2.011 1.958l1.698-0.98 1.5 2.598-1.669 0.964c0.359 0.861 0.602 1.781 0.733 2.737zM15.491 9.491c-3.59 0-6.5 2.91-6.5 6.5s2.91 6.5 6.5 6.5 6.5-2.91 6.5-6.5-2.91-6.5-6.5-6.5zM15.5 18.5c-1.381 0-2.5-1.119-2.5-2.5s1.119-2.5 2.5-2.5 2.5 1.119 2.5 2.5-1.119 2.5-2.5 2.5z"></path>
</symbol>
<symbol id="icon-android" viewBox="0 0 32 32">
<path d="M23 20c-0.553 0-1-0.448-1-1v-6c0-0.553 0.447-1 1-1 0.552 0 1 0.447 1 1v6c0 0.552-0.448 1-1 1zM19.998 7.209c0.998 1.722 1.002 3.791 1.002 3.791h-10c0 0-0.039-2.096 0.969-3.824l-1.883-1.883c-0.195-0.195-0.195-0.512 0-0.707s0.512-0.195 0.707 0l1.766 1.766c0.74-0.819 1.831-1.414 3.441-1.414 1.59 0 2.671 0.611 3.41 1.444l1.797-1.796c0.195-0.195 0.512-0.195 0.707 0s0.195 0.512 0 0.707l-1.916 1.916zM13.5 8c-0.276 0-0.5 0.224-0.5 0.5s0.224 0.5 0.5 0.5c0.275 0 0.5-0.224 0.5-0.5s-0.225-0.5-0.5-0.5zM18.5 8c-0.276 0-0.5 0.224-0.5 0.5s0.224 0.5 0.5 0.5c0.275 0 0.5-0.224 0.5-0.5s-0.225-0.5-0.5-0.5zM10 19c0 0.552-0.448 1-1 1-0.553 0-1-0.448-1-1v-6c0-0.553 0.447-1 1-1 0.552 0 1 0.447 1 1v6zM21 21c0 1.305-0.838 2.402-2 2.816v3.184c0 0.552-0.448 1-1 1-0.553 0-1-0.448-1-1v-3h-2v3c0 0.552-0.448 1-1 1-0.553 0-1-0.448-1-1v-3.184c-1.163-0.414-2-1.512-2-2.816v-9h10v9z"></path>
</symbol>
<symbol id="icon-chronometer" viewBox="0 0 32 32">
<path d="M28.054 18.571c0 6.933-5.62 12.554-12.554 12.554s-12.554-5.621-12.554-12.554c0-6.722 5.286-12.192 11.927-12.521v-2.166h-0.941c-0.555 0-1.005-0.45-1.005-1.005s0.45-1.004 1.005-1.004h3.012c0.555 0 1.005 0.449 1.005 1.004s-0.45 1.005-1.005 1.005h-1.066v2.153c6.757 0.2 12.176 5.729 12.176 12.534zM14.873 9.909v-2.291c-3.109 0.176-5.866 1.64-7.766 3.858l1.653 1.653-0.71 0.711-1.565-1.566c-1.274 1.798-2.032 3.987-2.032 6.359 0 0.106 0.015 0.251 0.015 0.251h2.432v1.005h-2.36c0.244 2.052 1.057 3.987 2.268 5.534l1.243-1.243 0.71 0.71-1.296 1.297c1.879 1.996 4.488 3.297 7.408 3.462v-2.729h1.004v2.742c2.989-0.102 5.67-1.393 7.599-3.41l-1.424-1.424 0.71-0.71 1.377 1.376c1.24-1.56 2.074-3.521 2.322-5.604h-2.55v-1.005h2.621c0.003-0.104 0.016-0.145 0.016-0.251 0-2.438-0.8-4.681-2.138-6.505l-1.648 1.648-0.71-0.71 1.726-1.725c-1.947-2.203-4.753-3.631-7.9-3.737v2.304h-1.005zM15.939 18.885h3.516c0.277 0 0.502 0.226 0.502 0.502 0 0.277-0.225 0.503-0.502 0.503h-4.018c-0.277 0-0.502-0.226-0.502-0.503v-6.967c0-0.277 0.225-0.502 0.502-0.502s0.502 0.225 0.502 0.502v6.465z"></path>
</symbol>
<symbol id="icon-watch" viewBox="0 0 32 32">
<path d="M28 18.031h-1v7c0 1.656-1.344 3-3 3h-4v3.938h-11v-3.938h-4c-1.657 0-3-1.344-3-3v-17c0-1.657 1.343-3 3-3h4v-4h11v4h4c1.656 0 3 1.343 3 3v7h1c0.552 0 1 0.448 1 1v1c0 0.552-0.448 1-1 1zM25 9.031c0-1.105-0.896-2-2-2h-17c-1.104 0-2 0.896-2 2v15c0 1.104 0.896 2 2 2h17c1.104 0 2-0.896 2-2v-15zM21 17.031h-2v-3h1v2h1v-2h1v5h-1v-2zM16 19.031h-1v-5h3v5h-2zM17 15.031h-1v3h1v-3zM13 17.031h1v1h-1v-1zM13 15.031h1v1h-1v-1zM10 19.031v-1h1v-1h-1v-1h1v-1h-1v-1h2v5h-2zM7 19.031v-3h1v-1h-1v-1h2v3h-1v1h1v1h-2z"></path>
</symbol>
<symbol id="icon-time" viewBox="0 0 32 32">
<path d="M16 3.5c-7.181 0-13 5.82-13 13s5.819 13 13 13c7.179 0 13-5.82 13-13s-5.82-13-13-13zM15.895 27.027c-5.799 0-10.5-4.701-10.5-10.5s4.701-10.5 10.5-10.5c5.798 0 10.5 4.701 10.5 10.5s-4.702 10.5-10.5 10.5zM18.93 17.131h-2.98v-5.032c0-0.546-0.443-0.99-0.989-0.99s-0.99 0.443-0.99 0.99v6.021c0 0.547 0.443 0.989 0.99 0.989h3.969c0.547 0 0.99-0.442 0.99-0.989 0-0.546-0.443-0.989-0.99-0.989z"></path>
</symbol>
<symbol id="icon-headphones" viewBox="0 0 32 32">
<path d="M24 28v-2h-0.025c0.009-0.166 0.025-0.331 0.025-0.5v-11c0-4.694-3.806-8.5-8.5-8.5s-8.5 3.806-8.5 8.5v11c0 0.169 0.016 0.334 0.025 0.5h-0.025v2c0 0-5-0.084-5-5.5 0-3.072 1.607-4.427 3-5.025v-2.975c0-5.799 4.701-10.5 10.5-10.5s10.5 4.701 10.5 10.5v2.975c1.393 0.599 3 1.953 3 5.025 0 5.416-5 5.5-5 5.5zM9 28h-1v-11h1v11zM23 28h-1v-11h1v11z"></path>
</symbol>
<symbol id="icon-wallet" viewBox="0 0 32 32">
<path d="M18 22c-1.104 0-2-0.896-2-2v-2c0-1.105 0.896-2 2-2h12v6h-12zM19.5 17.583c-0.828 0-1.5 0.672-1.5 1.5 0 0.829 0.672 1.5 1.5 1.5 0.829 0 1.5-0.671 1.5-1.5 0-0.828-0.671-1.5-1.5-1.5zM15 18v2c0 1.656 1.344 3 3 3h10v4c0 1.656-1.343 3-3 3h-21c-1.656 0-3-1.344-3-3v-19c0-1.657 1.344-3 3-3h9.632l-2.349 0.979h-7.782c-0.828 0-1.5 0.672-1.5 1.5s0.672 1.5 1.5 1.5h24.499v6.021h-10c-1.656 0-3 1.343-3 3zM5.001 11h-2v2h1v-1h1v-1zM5.001 14h-2v2h1.041l-0.041-1 1 0.021v-1.021zM5.001 17h-2v2h1.021l-0.021-1h1v-1zM5.001 20h-2v2h1.021l-0.021-1 1 0.021v-1.021zM5.001 23h-2v2h1v-1h1v-1zM5.001 26h-2v2h1.021l-0.021-0.979h1v-1.021zM9.001 7.938l11.75-4.938 2.25 4.938h-14zM22.646 5h2.354c0.876 0 1.656 0.381 2.205 0.979h-4.081l-0.478-0.979z"></path>
</symbol>
<symbol id="icon-checkmark2" viewBox="0 0 32 32">
<path d="M28.998 8.531l-2.134-2.134c-0.394-0.393-1.030-0.393-1.423 0l-12.795 12.795-6.086-6.13c-0.393-0.393-1.029-0.393-1.423 0l-2.134 2.134c-0.393 0.394-0.393 1.030 0 1.423l8.924 8.984c0.393 0.393 1.030 0.393 1.423 0l15.648-15.649c0.393-0.392 0.393-1.030 0-1.423z"></path>
</symbol>
<symbol id="icon-cancel2" viewBox="0 0 32 32">
<path d="M19.587 16.001l6.096 6.096c0.396 0.396 0.396 1.039 0 1.435l-2.151 2.151c-0.396 0.396-1.038 0.396-1.435 0l-6.097-6.096-6.097 6.096c-0.396 0.396-1.038 0.396-1.434 0l-2.152-2.151c-0.396-0.396-0.396-1.038 0-1.435l6.097-6.096-6.097-6.097c-0.396-0.396-0.396-1.039 0-1.435l2.153-2.151c0.396-0.396 1.038-0.396 1.434 0l6.096 6.097 6.097-6.097c0.396-0.396 1.038-0.396 1.435 0l2.151 2.152c0.396 0.396 0.396 1.038 0 1.435l-6.096 6.096z"></path>
</symbol>
<symbol id="icon-basket" viewBox="0 0 32 32">
<path d="M0 14v-3h3.75l7.531-7.532c-0.050-0.149-0.093-0.301-0.093-0.468 0-0.829 0.671-1.5 1.5-1.5 0.828 0 1.5 0.671 1.5 1.5s-0.672 1.5-1.5 1.5c-0.111 0-0.209-0.041-0.312-0.063l-6.564 6.563h19.354l-6.525-6.579c-0.129 0.036-0.252 0.079-0.391 0.079-0.828 0-1.5-0.672-1.5-1.5s0.672-1.5 1.5-1.5 1.5 0.671 1.5 1.5c0 0.153-0.045 0.293-0.088 0.433l7.567 7.567h3.771v3h-31zM24.869 28.902c-0.293 1.172-1.105 1.107-1.105 1.107l-16.595 0.032c-0.846 0-1.073-1.072-1.073-1.072l-4.387-13.955 27.574-0.026-4.414 13.914zM9.999 17h-1v5h1v-5zM9.999 23h-1v5h1v-5zM11.999 17h-0.999v5h0.999v-5zM11.999 23h-0.999v5h0.999v-5zM13.999 17h-1v5h1v-5zM13.999 23h-1v5h1v-5zM16 17h-1v5h1v-5zM16 23h-1v5h1v-5zM18 17h-1v5h1v-5zM18 23h-1v5h1v-5zM20 17h-1v5h1v-5zM20 23h-1v5h1v-5zM22 17h-1v5h1v-5zM22 23h-1v5h1v-5z"></path>
</symbol>
<symbol id="icon-alarm" viewBox="0 0 32 32">
<path d="M27.013 25.278v1.825h-22.026v-1.825c0 0-0.471-1.009 2.085-3.429 2.554-2.419 2.218-8.672 2.218-12.907s5.948-4.325 5.948-4.325h0.204c0 0.002 0-0.029 0-0.688 0-0.423-1.42-1.955-1.42-1.955l-0.021-0.927h4.010l-0.027 0.962c0 0-1.539 1.531-1.539 1.982 0 0.436 0 0.582 0 0.625h0.317c0 0 5.948 0.090 5.948 4.325s-0.336 10.489 2.219 12.909 2.084 3.428 2.084 3.428zM18.512 28.070c0 1.385-1.122 2.883-2.506 2.883s-2.506-1.498-2.506-2.883c0 0.031 5.012-0.032 5.012 0z"></path>
</symbol>
<symbol id="icon-phone1" viewBox="0 0 32 32">
<path d="M15.331 19.76c-0.026-0.018-3.034-5.075-3.044-5.14-0.622-1.359-1.124-2.749-0.078-3.366l-4.341-7.32c-1.125 0.841-4.307 5.405 1.649 15.748 6.274 10.9 12.245 10.447 13.442 9.709l-4.23-7.145c-1 0.588-1.842-0.381-3.398-2.486zM25.862 26.617l0.001-0.006c0 0-3.303-5.566-3.305-5.568-0.262-0.441-0.825-0.58-1.264-0.324l-2.024 1.197 4.242 7.166c0 0 2.024-1.191 2.023-1.195h0.004c0.465-0.276 0.572-0.846 0.323-1.27zM14.786 9.736v-0.004c0.465-0.275 0.574-0.845 0.325-1.265l0.002-0.006c0 0-3.398-5.729-3.4-5.73-0.261-0.443-0.826-0.58-1.263-0.324l-2.024 1.197 4.336 7.324c0 0 2.023-1.189 2.024-1.192z"></path>
</symbol>
<symbol id="icon-medal" viewBox="0 0 32 32">
<path d="M9.193 20.037c-1.25 0-1.416-0.584-1.416-0.584l-4.875 9.58 3.909-0.438 2.162 3.25c0 0 4.5-9.393 4.5-9.33-2.33-0.056-1.405-2.415-4.28-2.478zM20.182 21.065c0.607-1.020 1.504-1.537 2.691-1.553s1.787-0.617 1.803-1.804c0.016-1.186 0.533-2.083 1.553-2.689s1.24-1.428 0.66-2.463-0.58-2.071 0-3.106 0.359-1.856-0.66-2.463-1.537-1.503-1.553-2.69c-0.016-1.186-0.617-1.787-1.803-1.803-1.188-0.016-2.084-0.533-2.691-1.553-0.605-1.020-1.428-1.24-2.463-0.66s-2.070 0.58-3.105 0-1.856-0.359-2.463 0.66c-0.607 1.020-1.503 1.537-2.69 1.553s-1.787 0.618-1.803 1.804c-0.016 1.187-0.533 2.083-1.553 2.69s-1.24 1.428-0.66 2.463c0.58 1.035 0.58 2.071 0 3.106s-0.359 1.856 0.66 2.463c1.020 0.607 1.537 1.504 1.553 2.689 0.016 1.187 0.617 1.788 1.803 1.804s2.083 0.533 2.69 1.553c0.606 1.020 1.428 1.239 2.463 0.66s2.070-0.579 3.105 0 1.857 0.359 2.463-0.661zM17.518 16.004h-1.781v-6.726c-0.651 0.609-1.42 1.059-2.305 1.351v-1.617c0.465-0.152 0.971-0.44 1.517-0.865s0.92-0.92 1.123-1.486h1.446v9.343zM24.16 19.828c-3.562 0.375-2.838 1.256-3.65 1.943-0.938 1-2.107 0.807-2.107 0.807l5.5 9.455 1.35-3.5 3.846 0.5-4.939-9.205z"></path>
</symbol>
<symbol id="icon-locked" viewBox="0 0 32 32">
<path d="M16 31c-5.247 0-9.5-4.254-9.5-9.5 0-3.41 1.802-6.391 4.5-8.067v-5.933c0-3.038 2.463-5.5 5.5-5.5s5.5 2.462 5.5 5.5v6.637c2.135 1.742 3.5 4.392 3.5 7.363 0 5.246-4.253 9.5-9.5 9.5zM20 7.5c0-1.933-1.566-3.5-3.5-3.5-1.933 0-3.5 1.567-3.5 3.5v4.991c0.944-0.314 1.95-0.491 3-0.491 1.432 0 2.783 0.325 4 0.892v-5.392zM16 13.5c-4.418 0-8 3.582-8 8s3.582 8 8 8 8-3.582 8-8-3.582-8-8-8zM16 29c-4.143 0-7.5-3.357-7.5-7.5s3.357-7.5 7.5-7.5c4.143 0 7.5 3.357 7.5 7.5s-3.357 7.5-7.5 7.5zM17.5 19.5c0-0.828-0.672-1.5-1.5-1.5s-1.5 0.672-1.5 1.5c0 0.711 0.504 1.277 1.167 1.434l-1.167 4.566h3.062l-1.314-4.551c0.705-0.121 1.252-0.709 1.252-1.449z"></path>
</symbol>
<symbol id="icon-unlocked" viewBox="0 0 32 32">
<path d="M28 14v-6.5c0-1.933-1.567-3.5-3.5-3.5s-3.5 1.567-3.5 3.5v5.933c2.697 1.676 4.5 4.657 4.5 8.067 0 5.247-4.253 9.5-9.5 9.5s-9.5-4.253-9.5-9.499c0-5.247 4.253-9.5 9.5-9.5 1.050 0 2.056 0.177 3 0.491v-4.992c0-3.037 2.463-5.5 5.5-5.5s5.5 2.463 5.5 5.5v6.5h-2zM16 13.5c-4.418 0-8 3.582-8 8s3.582 7.999 8 7.999 8-3.581 8-7.999c0-4.418-3.582-8-8-8zM16 29c-4.143 0-7.5-3.357-7.5-7.499 0-4.144 3.357-7.501 7.5-7.501s7.5 3.357 7.5 7.501c0 4.142-3.357 7.499-7.5 7.499zM17.5 19.501c0-0.829-0.672-1.5-1.5-1.5s-1.5 0.671-1.5 1.5c0 0.709 0.504 1.277 1.167 1.432l-1.167 4.567h3.062l-1.314-4.55c0.705-0.123 1.252-0.709 1.252-1.449z"></path>
</symbol>
<symbol id="icon-zoomin" viewBox="0 0 32 32">
<path d="M29.156 29.961l-0.709 0.709c-0.785 0.784-2.055 0.784-2.838 0l-5.676-5.674c-0.656-0.658-0.729-1.644-0.281-2.412l-3.104-3.102c-1.669 1.238-3.728 1.979-5.965 1.979-5.54 0-10.031-4.491-10.031-10.031s4.491-10.032 10.031-10.032c5.541 0 10.031 4.491 10.031 10.032 0 2.579-0.98 4.923-2.58 6.7l3.035 3.035c0.768-0.447 1.754-0.375 2.41 0.283l5.676 5.674c0.784 0.785 0.784 2.056 0.001 2.839zM18.088 11.389c0-4.155-3.369-7.523-7.524-7.523s-7.524 3.367-7.524 7.523 3.368 7.523 7.523 7.523 7.525-3.368 7.525-7.523zM11.002 13.959h-1.003v-1.943h-2.006v-1.003h2.006v-2.007h1.003v2.007h2.007v1.003h-2.007v1.943z"></path>
</symbol>
<symbol id="icon-stack" viewBox="0 0 32 32">
<path d="M28.608 11.246l-12.608-8.632-12.608 8.632 12.608 8.631 12.608-8.631zM16 21.803l-11.129-7.338-1.479 1.535 12.608 8.631 12.608-8.631-1.499-1.568-11.109 7.371zM16 26.559l-11.129-7.338-1.479 1.535 12.608 8.631 12.608-8.631-1.499-1.568-11.109 7.371z"></path>
</symbol>
<symbol id="icon-lamp" viewBox="0 0 32 32">
<path d="M17.57 18.118c-1.598-1.306-2.618-3.292-2.618-5.517 0-1.118 0.28-2.162 0.739-3.104l-1.098-1.097-6.67 6.671c1.24 0.976 1.115 1.93-0.336 2.86l8.911 8.91h4.367c0.562 0 1.018 0.456 1.018 1.018v1.018h-4.768l-0.011 0.011-0.011-0.011h-7.418v-1.017c0-0.562 0.456-1.018 1.018-1.018h4.367l-8.406-8.405c-1.661 0.712-2.481 0.024-2.446-2.090 0.038-2.249 0.991-2.849 2.839-1.837l6.829-6.829-0.676-0.675c-0.397-0.396-0.397-1.041 0-1.438l2.158-2.158c0.397-0.397 1.042-0.397 1.439 0l2.6 2.602c0.828-0.337 1.729-0.53 2.678-0.53 2.342 0 4.422 1.005 5.719 2.752 0.044 0.011-10.187 9.9-10.224 9.884zM25.443 11.754c0 0 1.717 2.161 0 3.878s-3.857-0.021-3.857-0.021l3.857-3.857z"></path>
</symbol>
<symbol id="icon-lamp1" viewBox="0 0 32 32">
<path d="M16.13 1.781c-5.371 0-8.19 4.236-8.19 8.090 0 4.324 4.024 7.043 4.024 14.114h4.075c0 0 3.827 0.018 3.943 0.018 0.116-7.123 4.078-9.925 4.078-14.166 0.001-3.619-2.559-8.056-7.93-8.056zM19.474 25.031h-7c-0.276 0-0.5 0.224-0.5 0.5s0.224 0.5 0.5 0.5h7c0.275 0 0.5-0.224 0.5-0.5s-0.225-0.5-0.5-0.5zM19.474 27.031h-7c-0.276 0-0.5 0.224-0.5 0.5s0.224 0.5 0.5 0.5h7c0.275 0 0.5-0.224 0.5-0.5s-0.225-0.5-0.5-0.5zM12.974 29.031c0 0 0 0.447 0 1 0 0.552 0.447 1 1 1h4.014c0.553 0 1-0.448 1-1 0-0.553 0-1 0-1h-6.014z"></path>
</symbol>
<symbol id="icon-lamp2" viewBox="0 0 32 32">
<path d="M17.747 14.017c-1.25 0.562-4.022-0.815-4.022-0.815-3.248-1.947 1.22 6.073 1.22 6.073s0.093 2.503 0.655 2.815c4.687-6.563 3.397-8.636 2.147-8.073zM16.060 20.24c-0.379 0-1.972-4.779-1.784-5.779 1.251 0.125 2.409 0.597 3.097 0.222 1.937-0.878-0.876 5.557-1.313 5.557zM19.952 23.947c0.115-7.305 4.046-10.116 4.046-14.466 0-3.712-2.54-8.45-7.87-8.45-5.329 0-8.126 4.533-8.126 8.484 0 4.436 3.993 7.224 3.993 14.478h4.043c0 0 3.798-0.046 3.914-0.046zM12.809 23.020c0-6.771-3.868-9.373-3.868-13.513 0-3.688 2.51-7.556 7.173-7.556s6.948 4.060 6.948 7.524c0 4.060-3.814 6.742-3.916 13.56-0.102 0-3.111-0.016-3.111-0.016h-3.226zM19.505 25.014h-7c-0.276 0-0.5 0.224-0.5 0.5s0.224 0.5 0.5 0.5h7c0.275 0 0.5-0.224 0.5-0.5s-0.225-0.5-0.5-0.5zM19.505 27.014h-7c-0.276 0-0.5 0.224-0.5 0.5s0.224 0.5 0.5 0.5h7c0.275 0 0.5-0.224 0.5-0.5s-0.225-0.5-0.5-0.5zM12.997 29.043c0 0 0 0.334 0 0.9s0.444 1.025 0.992 1.025h4.031c0.549 0 0.992-0.459 0.992-1.025s-0.062-0.9-0.062-0.9h-5.953z"></path>
</symbol>
<symbol id="icon-cube" viewBox="0 0 32 32">
<path d="M15.452 3.006l-13.362 5.757 13.375 5.712 13.513-5.725-13.526-5.744zM16 15.194v13.8l12.995-6.169v-13.151l-12.995 5.52zM2.005 22.825l13.039 6.169v-13.8l-13.039-5.52v13.151z"></path>
</symbol>
<symbol id="icon-moneybag" viewBox="0 0 32 32">
<path d="M14.017 9.302h3.934v-1.476h-3.934v1.476zM17.922 9.793h-3.905c0 0-6.425 6.333-6.425 12.542 0 6.579 6.732 7.102 6.732 7.102s2.008 0.333 3.257 0c0 0 6.826-0.8 6.826-7.070 0.001-6.272-6.485-12.574-6.485-12.574zM18.211 23.123c-0.158 0.32-0.371 0.588-0.643 0.802-0.271 0.215-0.588 0.376-0.949 0.484-0.046 0.014-0.096 0.019-0.143 0.031v1.092h-0.983v-0.964c-0.012 0.001-0.024 0.003-0.036 0.003-0.279 0-0.538-0.022-0.778-0.067s-0.45-0.101-0.634-0.164c-0.184-0.064-0.337-0.131-0.459-0.201s-0.212-0.132-0.266-0.186c-0.055-0.054-0.093-0.132-0.116-0.234-0.022-0.103-0.034-0.249-0.034-0.441 0-0.129 0.004-0.237 0.013-0.325s0.021-0.158 0.041-0.213c0.019-0.055 0.043-0.093 0.074-0.116 0.031-0.022 0.068-0.034 0.109-0.034 0.059 0 0.141 0.034 0.247 0.103s0.242 0.145 0.409 0.228c0.167 0.084 0.365 0.159 0.597 0.229 0.231 0.068 0.499 0.103 0.803 0.103 0.2 0 0.379-0.024 0.537-0.072s0.293-0.115 0.403-0.203c0.111-0.088 0.195-0.196 0.253-0.325 0.059-0.13 0.088-0.273 0.088-0.433 0-0.183-0.051-0.34-0.15-0.472-0.1-0.131-0.231-0.247-0.391-0.35-0.16-0.102-0.342-0.197-0.546-0.287s-0.415-0.185-0.631-0.284c-0.217-0.1-0.427-0.213-0.631-0.341-0.204-0.127-0.387-0.278-0.547-0.455s-0.29-0.387-0.391-0.628c-0.1-0.241-0.149-0.531-0.149-0.868 0-0.388 0.072-0.728 0.215-1.021s0.338-0.537 0.581-0.73c0.244-0.193 0.531-0.338 0.862-0.434 0.17-0.049 0.346-0.085 0.526-0.108v-1.035h0.983v1.034c0.040 0.005 0.079 0.003 0.118 0.009 0.191 0.029 0.371 0.068 0.537 0.118s0.314 0.105 0.443 0.167 0.215 0.113 0.256 0.155c0.043 0.041 0.070 0.076 0.086 0.105 0.014 0.029 0.025 0.068 0.037 0.116 0.010 0.048 0.018 0.108 0.021 0.182 0.004 0.072 0.006 0.163 0.006 0.271 0 0.121-0.004 0.224-0.010 0.308-0.006 0.083-0.016 0.152-0.031 0.206-0.014 0.055-0.035 0.094-0.062 0.119s-0.062 0.037-0.109 0.037c-0.045 0-0.119-0.028-0.219-0.086-0.1-0.059-0.223-0.121-0.367-0.189-0.146-0.068-0.314-0.13-0.506-0.187-0.193-0.056-0.403-0.083-0.631-0.083-0.18 0-0.336 0.021-0.469 0.065-0.134 0.043-0.245 0.104-0.335 0.18-0.089 0.077-0.156 0.17-0.199 0.277-0.044 0.107-0.065 0.222-0.065 0.342 0 0.18 0.049 0.335 0.146 0.466s0.229 0.248 0.394 0.35c0.164 0.103 0.351 0.198 0.56 0.287 0.208 0.090 0.42 0.185 0.637 0.284 0.217 0.101 0.428 0.214 0.637 0.341s0.395 0.279 0.557 0.456 0.293 0.385 0.393 0.624c0.1 0.24 0.15 0.521 0.15 0.847-0.001 0.422-0.081 0.794-0.239 1.115zM17.891 7.334l1.998-4.919c0 0-1.26 1.046-1.998 1.046s-1.907-1.015-1.907-1.015-1.26 1.015-1.998 1.015c-0.737 0-1.937-0.984-1.937-0.984l2.029 4.857h3.813z"></path>
</symbol>
<symbol id="icon-grid" viewBox="0 0 32 32">
<path d="M8 12h4v-4h-4v4zM14 12h4v-4h-4v4zM20 8v4h4v-4h-4zM8 18h4v-4h-4v4zM14 18h4v-4h-4v4zM20 18h4v-4h-4v4zM8 24h4v-4h-4v4zM14 24h4v-4h-4v4zM20 24h4v-4h-4v4z"></path>
</symbol>
<symbol id="icon-grid1" viewBox="0 0 32 32">
<path d="M8 15h7v-7h-7v7zM17 8v7h7v-7h-7zM17 24h7v-7h-7v7zM8 24h7v-7h-7v7z"></path>
</symbol>
<symbol id="icon-list" viewBox="0 0 32 32">
<path d="M8 8v4h16v-4h-16zM8 18h16v-4h-16v4zM8 24h16v-4h-16v4z"></path>
</symbol>
<symbol id="icon-list1" viewBox="0 0 32 32">
<path d="M8 12h4v-4h-4v4zM8 18h4v-4h-4v4zM8 24h4v-4h-4v4zM14 8v4h10v-4h-10zM14 18h10v-4h-10v4zM14 24h10v-4h-10v4z"></path>
</symbol>
<symbol id="icon-tools" viewBox="0 0 32 32">
<path d="M27.783 7.936c0.959 2.313 0.502 5.074-1.379 6.955-2.071 2.071-5.201 2.395-7.634 1.022l-1.759 1.921 1.255 1.26 0.75-0.75c0.383-0.384 1.005-0.384 1.388 0l6.082 6.144c0.384 0.383 0.384 1.005 0 1.388l-2.776 2.776c-0.383 0.384-1.005 0.384-1.388 0l-6.082-6.144c-0.384-0.383-0.384-1.005 0-1.388l0.685-0.685-1.196-1.199-8.411 9.189c-0.767 0.767-2.010 0.767-2.776 0l-0.694-0.694c-0.767-0.767-0.767-2.010 0-2.776l9.582-8.025-6.364-6.381-2.010-0.001-2.326-3.74 1.872-1.875 3.825 2.341 0.025 1.968 6.438 6.463 1.873-1.568c-1.831-2.496-1.64-6.012 0.616-8.268 1.872-1.872 4.618-2.337 6.925-1.396l-4.124 4.067 3.471 3.471 4.132-4.075zM6.15 25.934c-0.383-0.383-1.004-0.383-1.388 0-0.384 0.384-0.384 1.005 0 1.389 0.384 0.383 1.005 0.383 1.388 0 0.384-0.385 0.384-1.006 0-1.389z"></path>
</symbol>
<symbol id="icon-chat" viewBox="0 0 32 32">
<path d="M25.042 18.672v-12.487c0-1.234-1-2.236-2.236-2.236h-19.571c-1.235-0.001-2.236 1.001-2.236 2.236v12.487c0 1.235 1.001 2.236 2.236 2.236h3.729v5.137l5.704-5.137h10.137c1.237 0 2.237-1.001 2.237-2.236zM28.765 8.858h-2.798c0 0 0 9.972 0 10.909s-1.216 2.142-2.153 2.142-10.945 0.055-10.945 0.055c0 1.235 1.001 1.986 2.236 1.986h4.309l5.622 5.102-0.007-5.102h3.736c1.236 0 2.236-0.751 2.236-1.986v-10.932c0-1.234-1-2.174-2.236-2.174z"></path>
</symbol>
<symbol id="icon-profile" viewBox="0 0 32 32">
<path d="M28 9h-1.958v-2.938l-4.042-0.062 0.021 3h-12.146l0.083-3-3.958 0.062v3l-2-0.062c-1.104 0-2 0.896-2 2v14c0 1.104 0.896 2 2 2h24c1.104 0 2-0.896 2-2v-14c0-1.104-0.896-2-2-2zM23 7h2v4h-2v-4zM10 13.812c1.208 0 2.188 1.287 2.188 2.875s-0.98 2.875-2.188 2.875-2.188-1.287-2.188-2.875 0.98-2.875 2.188-2.875zM7 7h2v4h-2v-4zM5.667 22.948c0 0 0.237-1.902 0.776-2.261s2.090-0.598 2.090-0.598 1.006 1.075 1.434 1.075c0.427 0 1.433-1.075 1.433-1.075s1.552 0.238 2.091 0.598c0.633 0.422 0.791 2.261 0.791 2.261h-8.615zM26 22h-9v-1h9v1zM26 20h-9v-1h9v1zM26 18h-9v-1h9v1zM26 16h-9v-1h9v1z"></path>
</symbol>
<symbol id="icon-profile1" viewBox="0 0 32 32">
<path d="M28 25h-3v-1c0.553 0 1-0.448 1-1 0-0.553-0.447-1-1-1h-2c-0.553 0-1 0.447-1 1 0 0.552 0.447 1 1 1v1h-13v-1c0.553 0 1-0.448 1-1 0-0.553-0.447-1-1-1h-2c-0.553 0-1 0.447-1 1 0 0.552 0.447 1 1 1v1h-4c-1.104 0-2-0.896-2-2v-14c0-1.104 0.896-2 2-2h24c1.104 0 2 0.896 2 2v14c0 1.104-0.896 2-2 2zM10 9.812c-1.208 0-2.188 1.287-2.188 2.875s0.98 2.875 2.188 2.875 2.188-1.287 2.188-2.875-0.98-2.875-2.188-2.875zM13.49 16.688c-0.539-0.359-2.091-0.598-2.091-0.598s-1.006 1.075-1.433 1.075c-0.428 0-1.434-1.075-1.434-1.075s-1.552 0.238-2.090 0.598c-0.539 0.358-0.777 2.261-0.777 2.261h8.615c0.001-0.001-0.157-1.84-0.79-2.261zM26 11h-9v1h9v-1zM26 13h-9v1h9v-1zM26 15h-9v1h9v-1zM26 17h-9v1h9v-1z"></path>
</symbol>
<symbol id="icon-dollar" viewBox="0 0 32 32">
<path d="M0 25v-18h32v18h-32zM2 8.938v14.062h28v-14.062h-28zM21 16c0-3.313-2.238-6-5-6h13v12h-13c2.762 0 5-2.687 5-6zM25 18c0.828 0 1.5-0.896 1.5-2s-0.672-2-1.5-2-1.5 0.896-1.5 2 0.672 2 1.5 2zM18.118 13.478c-0.015 0.055-0.036 0.094-0.062 0.119-0.027 0.025-0.063 0.037-0.109 0.037s-0.118-0.028-0.219-0.086c-0.1-0.059-0.223-0.121-0.368-0.189-0.146-0.068-0.314-0.13-0.506-0.187s-0.402-0.083-0.631-0.083c-0.18 0-0.336 0.021-0.469 0.065s-0.245 0.104-0.334 0.18c-0.090 0.077-0.156 0.17-0.2 0.277s-0.065 0.222-0.065 0.342c0 0.18 0.049 0.335 0.147 0.466s0.229 0.248 0.394 0.35c0.165 0.103 0.351 0.198 0.56 0.287 0.207 0.090 0.42 0.185 0.637 0.284 0.217 0.101 0.429 0.214 0.637 0.341s0.395 0.279 0.557 0.456 0.293 0.385 0.394 0.624c0.1 0.24 0.149 0.521 0.149 0.847 0 0.425-0.078 0.797-0.236 1.118s-0.373 0.588-0.645 0.802c-0.271 0.215-0.587 0.376-0.949 0.484-0.046 0.014-0.096 0.020-0.143 0.031v1.092h-0.983v-0.963c-0.013 0-0.024 0.002-0.036 0.002-0.279 0-0.539-0.022-0.778-0.067s-0.451-0.101-0.634-0.164c-0.184-0.064-0.336-0.131-0.459-0.201s-0.211-0.132-0.265-0.186c-0.054-0.054-0.093-0.132-0.116-0.234-0.023-0.103-0.035-0.249-0.035-0.441 0-0.129 0.004-0.237 0.013-0.325s0.022-0.158 0.041-0.213 0.043-0.093 0.075-0.116c0.031-0.022 0.067-0.034 0.109-0.034 0.058 0 0.14 0.034 0.247 0.103s0.243 0.145 0.409 0.228c0.167 0.084 0.365 0.159 0.597 0.229 0.231 0.068 0.499 0.103 0.803 0.103 0.2 0 0.379-0.024 0.537-0.072s0.293-0.115 0.403-0.203 0.194-0.196 0.253-0.325c0.059-0.13 0.088-0.273 0.088-0.433 0-0.183-0.051-0.34-0.15-0.472-0.1-0.131-0.23-0.247-0.391-0.35-0.16-0.102-0.342-0.197-0.546-0.287s-0.414-0.185-0.631-0.284c-0.216-0.1-0.427-0.213-0.631-0.341s-0.386-0.278-0.546-0.455c-0.16-0.177-0.291-0.387-0.39-0.628s-0.15-0.531-0.15-0.868c0-0.388 0.072-0.728 0.215-1.021s0.337-0.537 0.581-0.73 0.531-0.338 0.862-0.434c0.17-0.050 0.346-0.085 0.526-0.109v-1.034h0.983v1.034c0.039 0.005 0.078 0.003 0.117 0.009 0.191 0.029 0.371 0.068 0.537 0.118 0.167 0.049 0.314 0.104 0.444 0.167 0.129 0.062 0.214 0.113 0.256 0.155s0.069 0.076 0.085 0.105c0.014 0.029 0.026 0.068 0.037 0.116s0.018 0.108 0.021 0.182c0.004 0.072 0.006 0.163 0.006 0.271 0 0.121-0.003 0.224-0.009 0.308-0.009 0.079-0.019 0.149-0.034 0.203zM11 16c0 3.313 2.238 6 5 6h-13v-12h13c-2.762 0-5 2.687-5 6zM7 14c-0.829 0-1.5 0.896-1.5 2s0.671 2 1.5 2c0.828 0 1.5-0.896 1.5-2s-0.672-2-1.5-2z"></path>
</symbol>
<symbol id="icon-dollar1" viewBox="0 0 38 32">
<path d="M36.002 23.010l0.057-17.089-31.050 0.019-0.001-1.96h32.992v19.031l-1.998-0.001zM34.995 26.017l-1.997-0.002 0.057-17.089-31.050 0.020-0.001-1.96h32.992v19.031zM32.053 28.020h-32.053v-18.030h32.053v18.030zM30.049 11.931h-28.046v14.086h28.045v-14.086zM27.045 24.515c0 0.177 0.044 0.342 0.101 0.5h-11.12c2.766 0 5.009-2.69 5.009-6.010s-2.243-6.010-5.009-6.010h11.119c-0.057 0.158-0.101 0.323-0.101 0.501 0 0.83 0.672 1.502 1.502 1.502 0.178 0 0.343-0.044 0.501-0.101v8.215c-0.158-0.056-0.323-0.101-0.501-0.101-0.829 0.001-1.501 0.674-1.501 1.504zM25.041 16.919c-0.83 0-1.502 0.896-1.502 2.003s0.672 2.003 1.502 2.003 1.502-0.896 1.502-2.003-0.672-2.003-1.502-2.003zM18.123 15.394c0.015 0.029 0.027 0.068 0.037 0.116 0.011 0.048 0.018 0.109 0.021 0.182 0.005 0.073 0.007 0.164 0.007 0.273 0 0.121-0.003 0.224-0.009 0.307-0.007 0.084-0.018 0.153-0.031 0.207-0.016 0.055-0.036 0.095-0.062 0.119-0.027 0.025-0.064 0.038-0.11 0.038s-0.118-0.029-0.219-0.087c-0.101-0.059-0.224-0.121-0.369-0.189s-0.315-0.131-0.507-0.187-0.402-0.084-0.632-0.084c-0.18 0-0.336 0.021-0.469 0.065-0.134 0.044-0.246 0.104-0.335 0.181s-0.157 0.17-0.2 0.277c-0.044 0.108-0.066 0.223-0.066 0.343 0 0.18 0.049 0.335 0.147 0.467s0.229 0.248 0.395 0.35c0.165 0.103 0.352 0.198 0.56 0.288s0.421 0.185 0.638 0.284c0.217 0.101 0.43 0.214 0.639 0.342 0.209 0.127 0.395 0.279 0.557 0.456 0.163 0.178 0.295 0.386 0.395 0.626s0.15 0.522 0.15 0.848c0 0.425-0.080 0.799-0.238 1.119-0.158 0.321-0.373 0.59-0.645 0.805s-0.588 0.376-0.951 0.484c-0.046 0.014-0.096 0.020-0.143 0.031v1.094h-0.985v-0.965c-0.013 0-0.024 0.003-0.037 0.003-0.279 0-0.539-0.023-0.779-0.068s-0.452-0.101-0.635-0.164c-0.184-0.064-0.337-0.132-0.46-0.202s-0.212-0.132-0.266-0.186-0.093-0.132-0.116-0.234-0.035-0.25-0.035-0.442c0-0.129 0.004-0.238 0.013-0.325 0.008-0.088 0.022-0.159 0.041-0.214 0.019-0.054 0.044-0.093 0.075-0.116 0.031-0.022 0.068-0.034 0.109-0.034 0.059 0 0.141 0.034 0.248 0.104 0.106 0.068 0.243 0.145 0.41 0.228s0.366 0.159 0.598 0.228c0.231 0.069 0.5 0.104 0.804 0.104 0.2 0 0.38-0.024 0.538-0.072s0.293-0.116 0.404-0.203c0.11-0.088 0.194-0.197 0.253-0.326s0.088-0.274 0.088-0.433c0-0.184-0.051-0.342-0.15-0.473-0.1-0.132-0.23-0.248-0.391-0.351s-0.343-0.198-0.547-0.287c-0.205-0.090-0.415-0.185-0.632-0.285s-0.428-0.214-0.632-0.341c-0.204-0.127-0.387-0.279-0.547-0.457-0.16-0.177-0.291-0.387-0.391-0.628-0.1-0.242-0.15-0.532-0.15-0.87 0-0.388 0.072-0.729 0.216-1.022 0.144-0.294 0.338-0.538 0.582-0.732s0.532-0.339 0.863-0.435c0.17-0.049 0.346-0.085 0.527-0.109v-1.035h0.985v1.035c0.039 0.005 0.078 0.003 0.117 0.009 0.192 0.029 0.372 0.068 0.539 0.118 0.166 0.050 0.314 0.105 0.443 0.168s0.215 0.113 0.258 0.155c0.039 0.037 0.067 0.072 0.082 0.102zM11.018 19.005c0 3.319 2.242 6.010 5.008 6.010h-11.119c0.056-0.158 0.101-0.323 0.101-0.5 0-0.83-0.673-1.503-1.502-1.503-0.178 0-0.343 0.045-0.501 0.101v-8.215c0.158 0.057 0.323 0.101 0.501 0.101 0.83 0 1.502-0.672 1.502-1.502 0-0.178-0.045-0.343-0.101-0.501h11.119c-2.766-0.001-5.008 2.69-5.008 6.009zM7.011 16.919c-0.83 0-1.502 0.896-1.502 2.003s0.673 2.003 1.502 2.003c0.83 0 1.502-0.896 1.502-2.003s-0.672-2.003-1.502-2.003z"></path>
</symbol>
<symbol id="icon-coins" viewBox="0 0 32 32">
<path d="M28.5 23h-12.246c0.359-0.619 0.634-1.29 0.816-2h11.43c0.553 0 1 0.447 1 1 0 0.552-0.447 1-1 1zM28.5 20h-11.236c0.041-0.328 0.069-0.661 0.069-1 0-0.34-0.028-0.672-0.069-1h11.236c0.553 0 1 0.447 1 1 0 0.552-0.447 1-1 1zM28.5 17h-11.43c-0.183-0.71-0.457-1.381-0.816-2h12.246c0.553 0 1 0.447 1 1 0 0.552-0.447 1-1 1zM28.5 14h-12.928c-0.65-0.811-1.453-1.493-2.369-2h15.297c0.553 0 1 0.447 1 1 0 0.552-0.447 1-1 1zM28.5 11h-16c-0.553 0-1-0.448-1-1 0-0.553 0.447-1 1-1h16c0.553 0 1 0.447 1 1 0 0.552-0.447 1-1 1zM28.5 8h-16c-0.553 0-1-0.448-1-1 0-0.553 0.447-1 1-1h16c0.553 0 1 0.447 1 1 0 0.552-0.447 1-1 1zM16.5 19c0 3.866-3.135 7-7 7s-7-3.134-7-7 3.134-7 7-7c3.865 0 7 3.134 7 7zM11.978 19.761c-0.101-0.239-0.231-0.447-0.394-0.624s-0.348-0.329-0.556-0.456c-0.208-0.127-0.42-0.24-0.637-0.341-0.217-0.1-0.429-0.194-0.637-0.284-0.208-0.089-0.395-0.185-0.559-0.287s-0.296-0.219-0.394-0.35c-0.098-0.131-0.147-0.286-0.147-0.466 0-0.12 0.022-0.234 0.065-0.342 0.044-0.107 0.11-0.2 0.2-0.277 0.089-0.076 0.201-0.137 0.334-0.18 0.133-0.044 0.29-0.065 0.469-0.065 0.229 0 0.439 0.027 0.631 0.083 0.191 0.057 0.36 0.118 0.506 0.187 0.146 0.068 0.269 0.131 0.369 0.189s0.173 0.086 0.219 0.086 0.082-0.012 0.109-0.037c0.026-0.025 0.048-0.064 0.062-0.119 0.015-0.054 0.024-0.123 0.031-0.206 0.006-0.084 0.009-0.187 0.009-0.308 0-0.108-0.002-0.199-0.006-0.271s-0.012-0.134-0.021-0.182c-0.011-0.048-0.023-0.087-0.037-0.116-0.016-0.029-0.043-0.064-0.085-0.105s-0.127-0.094-0.256-0.155c-0.129-0.062-0.277-0.118-0.443-0.167-0.167-0.050-0.346-0.089-0.537-0.118-0.039-0.006-0.079-0.004-0.118-0.009v-1.034h-0.984v1.034c-0.181 0.024-0.356 0.060-0.526 0.109-0.331 0.096-0.618 0.24-0.862 0.434s-0.438 0.438-0.581 0.73c-0.144 0.294-0.215 0.634-0.215 1.021 0 0.337 0.050 0.627 0.149 0.868s0.23 0.451 0.391 0.628c0.161 0.177 0.342 0.328 0.546 0.455 0.204 0.128 0.415 0.241 0.631 0.341s0.427 0.194 0.631 0.284 0.386 0.186 0.546 0.287c0.161 0.103 0.291 0.219 0.391 0.35 0.1 0.132 0.15 0.289 0.15 0.472 0 0.159-0.029 0.303-0.087 0.433s-0.143 0.237-0.253 0.325c-0.11 0.088-0.244 0.155-0.402 0.203-0.159 0.048-0.337 0.072-0.538 0.072-0.304 0-0.572-0.034-0.803-0.103s-0.43-0.145-0.597-0.229c-0.167-0.083-0.303-0.158-0.409-0.228-0.106-0.068-0.188-0.103-0.247-0.103-0.042 0-0.079 0.012-0.109 0.034-0.032 0.023-0.057 0.062-0.075 0.116-0.019 0.055-0.032 0.125-0.041 0.213s-0.013 0.196-0.013 0.325c0 0.192 0.012 0.339 0.034 0.441 0.023 0.103 0.062 0.181 0.116 0.234s0.142 0.115 0.265 0.186 0.276 0.137 0.459 0.201c0.183 0.063 0.395 0.118 0.634 0.164 0.239 0.045 0.499 0.067 0.778 0.067 0.012 0 0.023-0.002 0.036-0.002v0.963h0.983v-1.092c0.047-0.012 0.097-0.018 0.143-0.031 0.362-0.108 0.679-0.27 0.95-0.484s0.485-0.481 0.644-0.802c0.158-0.321 0.236-0.693 0.236-1.118 0.001-0.323-0.049-0.604-0.148-0.844zM15.572 24h12.928c0.553 0 1 0.447 1 1 0 0.552-0.447 1-1 1h-15.297c0.916-0.507 1.719-1.189 2.369-2z"></path>
</symbol>
<symbol id="icon-addressbook" viewBox="0 0 32 32">
<path d="M27 17.938v-3h2v3h-2zM27 11h2v3h-2v-3zM27 7h2v3h-2v-3zM24 29h-18c-1.104 0-2-0.896-2-2h0.5c0.828 0 1.5-0.672 1.5-1.5s-0.672-1.5-1.5-1.5h-0.5v-1h0.5c0.828 0 1.5-0.672 1.5-1.5s-0.672-1.5-1.5-1.5h-0.5v-1h0.5c0.828 0 1.5-0.672 1.5-1.5s-0.672-1.5-1.5-1.5h-0.5v-1h0.5c0.828 0 1.5-0.672 1.5-1.5s-0.672-1.5-1.5-1.5h-0.5v-1h0.5c0.828 0 1.5-0.672 1.5-1.5s-0.672-1.5-1.5-1.5h-0.5v-3c0-1.104 0.896-2 2-2h18c0.738 0 1.376 0.404 1.723 1h-19.723c-0.553 0-1 0.447-1 1 0 0.552 0.447 1 1 1h20v21c0 1.104-0.896 2-2 2zM15.5 9.562c-1.208 0-2.188 1.287-2.188 2.875s0.979 2.875 2.188 2.875 2.188-1.287 2.188-2.875-0.98-2.875-2.188-2.875zM18.99 16.688c-0.539-0.359-2.091-0.598-2.091-0.598s-1.006 1.075-1.433 1.075c-0.428 0-1.434-1.075-1.434-1.075s-1.552 0.238-2.090 0.598c-0.539 0.358-0.777 2.261-0.777 2.261h8.615c0.001-0.001-0.157-1.84-0.79-2.261zM5 9.5c0 0.276-0.224 0.5-0.5 0.5h-1c-0.276 0-0.5-0.224-0.5-0.5s0.224-0.5 0.5-0.5h1c0.276 0 0.5 0.224 0.5 0.5zM3.5 13h1c0.276 0 0.5 0.224 0.5 0.5s-0.224 0.5-0.5 0.5h-1c-0.276 0-0.5-0.224-0.5-0.5s0.224-0.5 0.5-0.5zM3.5 17h1c0.276 0 0.5 0.224 0.5 0.5s-0.224 0.5-0.5 0.5h-1c-0.276 0-0.5-0.224-0.5-0.5s0.224-0.5 0.5-0.5zM3.5 21h1c0.276 0 0.5 0.224 0.5 0.5s-0.224 0.5-0.5 0.5h-1c-0.276 0-0.5-0.224-0.5-0.5s0.224-0.5 0.5-0.5zM3.5 25h1c0.276 0 0.5 0.224 0.5 0.5s-0.224 0.5-0.5 0.5h-1c-0.276 0-0.5-0.224-0.5-0.5s0.224-0.5 0.5-0.5z"></path>
</symbol>
<symbol id="icon-envelope" viewBox="0 0 32 32">
<path d="M16.015 18.861l-4.072-3.343-8.862 10.463h25.876l-8.863-10.567-4.079 3.447zM29.926 6.019h-27.815l13.908 11.698 13.907-11.698zM20.705 14.887l9.291 11.084v-18.952l-9.291 7.868zM2.004 7.019v18.952l9.291-11.084-9.291-7.868z"></path>
</symbol>
<symbol id="icon-male" viewBox="0 0 32 32">
<path d="M16.902 6.004h9.125l-0.020 9.229-3.129-3.128-2.949 2.949c0.662 1.164 1.043 2.507 1.043 3.941 0 4.418-3.58 8-8 8-4.418 0-8-3.582-8-8s3.582-8 8-8c1.525 0 2.946 0.435 4.16 1.176l2.918-2.956-3.148-3.211zM8.973 18.996c0 2.209 1.791 4 4 4s4-1.791 4-4-1.791-4-4-4-4 1.791-4 4z"></path>
</symbol>
<symbol id="icon-female" viewBox="0 0 32 32">
<path d="M18.039 18.721v3.293h3.996v3.996h-3.996v3.996h-4.057v-3.996h-3.995v-3.996h3.995v-3.305c-3.435-0.895-5.973-4.009-5.973-7.723 0-4.413 3.578-7.991 7.991-7.991s7.99 3.578 7.99 7.991c0 3.729-2.496 6.852-5.951 7.735zM16 6.991c-2.207 0-3.996 1.788-3.996 3.995 0 2.206 1.789 3.995 3.996 3.995s3.996-1.789 3.996-3.995c0-2.207-1.789-3.995-3.996-3.995z"></path>
</symbol>
<symbol id="icon-heart" viewBox="0 0 32 32">
<path d="M16.042 8.345c0 0-2-4.262-6.5-4.262-4.917 0-7.5 4.167-7.5 8.333 0 6.917 14 15.5 14 15.5s13.916-8.5 13.916-15.5c0-4.25-2.666-8.333-7.416-8.333s-6.5 4.262-6.5 4.262z"></path>
</symbol>
<symbol id="icon-info" viewBox="0 0 32 32">
<path d="M16 3c-7.18 0-13 5.82-13 13s5.82 13 13 13 13-5.82 13-13-5.82-13-13-13zM18.039 20.783c-0.981 1.473-1.979 2.608-3.658 2.608-1.146-0.187-1.617-1.008-1.369-1.845l2.16-7.154c0.053-0.175-0.035-0.362-0.195-0.419-0.159-0.056-0.471 0.151-0.741 0.447l-1.306 1.571c-0.035-0.264-0.004-0.7-0.004-0.876 0.981-1.473 2.593-2.635 3.686-2.635 1.039 0.106 1.531 0.937 1.35 1.85l-2.175 7.189c-0.029 0.162 0.057 0.327 0.204 0.379 0.16 0.056 0.496-0.151 0.767-0.447l1.305-1.57c0.035 0.264-0.024 0.726-0.024 0.902zM17.748 11.439c-0.826 0-1.496-0.602-1.496-1.488s0.67-1.487 1.496-1.487 1.496 0.602 1.496 1.487c0 0.887-0.67 1.488-1.496 1.488z"></path>
</symbol>
<symbol id="icon-sun" viewBox="0 0 32 32">
<path d="M8.031 16.5c0 4.143 3.358 7.5 7.5 7.5s7.5-3.357 7.5-7.5-3.357-7.5-7.5-7.5c-4.142 0-7.5 3.357-7.5 7.5zM15.531 3.75l-2.109 4.219h4.219l-2.11-4.219zM24.543 7.457l-4.475 1.491 2.982 2.983 1.493-4.474zM10.994 8.948l-4.474-1.491 1.491 4.475 2.983-2.984zM6.969 14.359l-4.219 2.11 4.219 2.109v-4.219zM24.031 18.641l4.219-2.109-4.219-2.109v4.218zM15.531 29.25l2.109-4.219h-4.219l2.11 4.219zM20.068 24.052l4.475 1.491-1.492-4.475-2.983 2.984zM6.52 25.543l4.475-1.491-2.983-2.983-1.492 4.474z"></path>
</symbol>
<symbol id="icon-moon" viewBox="0 0 32 32">
<path d="M10.895 7.574c0 7.55 5.179 13.67 11.567 13.67 1.588 0 3.101-0.38 4.479-1.063-1.695 4.46-5.996 7.636-11.051 7.636-6.533 0-11.83-5.297-11.83-11.83 0-4.82 2.888-8.959 7.023-10.803-0.116 0.778-0.188 1.573-0.188 2.39z"></path>
</symbol>
<symbol id="icon-book" viewBox="0 0 32 32">
<path d="M15 25.875v-19.625c0 0-2.688-2.25-6.5-2.25s-6.5 2-6.5 2v19.875c0 0 2.688-1.938 6.5-1.938s6.5 1.938 6.5 1.938zM29 25.875v-19.625c0 0-2.688-2.25-6.5-2.25s-6.5 2-6.5 2v19.875c0 0 2.688-1.938 6.5-1.938s6.5 1.938 6.5 1.938zM31 8h-1v19h-12v1h-5v-1h-12v-19h-1v20h12v1h7.062l-0.062-1h12v-20z"></path>
</symbol>
<symbol id="icon-book1" viewBox="0 0 32 32">
<path d="M17 26c0 0 6.188-2.062 11 1.812 0-0.062 0-1.812 0-1.812-5.625-3.125-11 0-11 0zM2 6v19.875c0 0 2.688-1.938 6.5-1.938s6.5 1.938 6.5 1.938v-19.625c0 0-2.688-2.25-6.5-2.25s-6.5 2-6.5 2zM4 8h4v5h-4v-5zM13 21h-9v-1h9v1zM13 19h-9v-1h9v1zM13 17h-9v-1h9v1zM13 15h-9v-1h9v1zM9 8h4v1h-4v-1zM9 10h4v1h-4v-1zM9 12h4v1h-4v-1zM22.5 4c-3.812 0-6.5 2-6.5 2v19.875c0 0 2.688-1.938 6.5-1.938s6.5 1.938 6.5 1.938v-19.625c0 0-2.688-2.25-6.5-2.25zM27 21h-9v-1h9v1zM27 19h-9v-1h9v1zM27 17h-9v-1h9v1zM27 15h-9v-1h9v1zM27 13h-9v-1h9v1zM27 11h-9v-1h9v1zM27 9h-9v-1h9v1zM3 26c0 0 0 1.75 0 1.812 4.812-3.874 11-1.812 11-1.812s-5.375-3.125-11 0z"></path>
</symbol>
<symbol id="icon-yingyang" viewBox="0 0 32 32">
<path d="M16 2.984c-7.201 0-13.015 5.815-13.015 13.016 0 7.199 5.814 13.016 13.015 13.016 7.2 0 13.016-5.816 13.016-13.016s-5.817-13.016-13.016-13.016zM15.954 8.189c0.931 0 1.687 0.755 1.687 1.688s-0.756 1.688-1.687 1.688c-0.933 0-1.688-0.756-1.688-1.688s0.755-1.688 1.688-1.688zM16.182 28.141c-3.541 0-6.26-2.644-6.26-6.065 0-3.305 2.502-6.067 5.857-6.064 0 0 6.298-0.31 6.298-6.083 0-3.47-2.1-5.567-6.085-6.083 7.173 0.398 12.148 5.373 12.148 12.147 0.001 6.61-5.439 12.148-11.958 12.148zM16.015 20.314c-0.932 0-1.688 0.755-1.688 1.688 0 0.932 0.756 1.688 1.688 1.688s1.688-0.756 1.688-1.688c0-0.933-0.756-1.688-1.688-1.688z"></path>
</symbol>
<symbol id="icon-heart1" viewBox="0 0 32 32">
<path d="M24 12.977c-3.866 0-7 3.158-7 7.055 0 2.22 1.020 4.197 2.609 5.491-2.056 1.525-3.609 2.488-3.609 2.488s-14-8.652-14-15.622c0-4.2 2.583-8.399 7.5-8.399 4.5 0 6.5 4.296 6.5 4.296s1.75-4.296 6.5-4.296 7.416 4.115 7.416 8.399c0 0.958-0.272 1.943-0.716 2.932-1.281-1.436-3.134-2.344-5.2-2.344zM24 13.984c3.313 0 6 2.707 6 6.047s-2.687 6.048-6 6.048c-3.314 0-6-2.708-6-6.048s2.686-6.047 6-6.047zM21 21.039h2v2.016h2v-2.016h2v-2.016h-2v-2.016h-2v2.016h-2v2.016z"></path>
</symbol>
<symbol id="icon-clipboard" viewBox="0 0 32 32">
<path d="M7.903 7.023c0 0.55 0 1.993 0 1.993h14.014c0 0 0-1.443 0-1.993s-0.445-0.997-0.996-0.997h-2.99c0 0 0.034-1.138 0.034-2.882 0-1.619-1.404-3.098-3.086-3.098s-2.978 1.406-2.978 3.089c0 1.619-0.012 2.891-0.012 2.891h-2.989c-0.551 0-0.997 0.446-0.997 0.997zM14.879 3.037c0.55 0 0.997 0.446 0.997 0.996 0 0.551-0.447 0.997-0.997 0.997s-0.997-0.446-0.997-0.997c0-0.55 0.447-0.996 0.997-0.996zM23.911 6.026v9.901c0 0 0.86-0.949 1.992-1.404v-9.493c0-1.101-0.955-1.993-2.055-1.993h-4.921v1.993h3.986c0.551 0 0.998 0.446 0.998 0.996zM12.823 30.006h-5.917c-0.55 0-0.996-0.445-0.996-0.996v-22.984c0-0.55 0.446-0.996 0.996-0.996h4.049v-1.993h-5.045c-1.101 0-1.993 0.893-1.993 1.993v24.976c0 1.101 0.892 1.994 1.993 1.994h9.081c-0.39-0.658-1.087-1.418-2.168-1.994zM23.911 29.010c0 0.551-0.447 0.996-0.997 0.996h-2.729c-0.502 0.672-0.975 1.34-1.41 1.994h5.074c1.1 0 2.055-0.893 2.055-1.994v-6.129c-0.66 0.543-1.328 1.156-1.992 1.83v3.303zM28.083 20.926c-1.123-2.496-0.48-4.523-0.32-6.863-6.579 3.275-10.751 13.103-10.751 13.103l-2.567-4.836-5.295 3.119c2.247 0.779 5.456 3.275 8.184 6.551 1.924-3.432 7.861-10.449 10.749-11.074z"></path>
</symbol>
<symbol id="icon-switch" viewBox="0 0 32 32">
<path d="M15.5 31.062c-6.904 0-12.5-5.597-12.5-12.5 0-5.315 3.323-9.844 8-11.651v4.449c-2.399 1.503-4 4.162-4 7.202 0 4.694 3.806 8.5 8.5 8.5s8.5-3.806 8.5-8.5c0-2.596-1.166-4.915-3-6.475v-4.736c4.143 2.036 7 6.284 7 11.212 0 6.903-5.597 12.499-12.5 12.499zM16 17.062c-1.104 0-2-0.896-2-2v-11.124c0-1.104 0.896-2 2-2s2 0.896 2 2v11.125c0 1.104-0.896 1.999-2 1.999z"></path>
</symbol>
<symbol id="icon-creative-commons-noderivs" viewBox="0 0 20 20">
<path d="M9.988 0.4c-2.659 0-4.91 0.928-6.752 2.784-1.891 1.92-2.835 4.192-2.835 6.816s0.945 4.88 2.835 6.768c1.89 1.888 4.141 2.832 6.752 2.832 2.643 0 4.934-0.952 6.873-2.856 1.826-1.808 2.74-4.056 2.74-6.744s-0.929-4.961-2.788-6.816c-1.859-1.856-4.133-2.784-6.825-2.784zM10.012 2.127c2.179 0 4.029 0.768 5.551 2.304 1.538 1.52 2.307 3.376 2.307 5.568 0 2.208-0.753 4.040-2.259 5.496-1.586 1.568-3.452 2.351-5.599 2.351s-3.997-0.776-5.551-2.328c-1.554-1.552-2.331-3.392-2.331-5.519 0-2.129 0.785-3.984 2.355-5.568 1.506-1.536 3.348-2.304 5.527-2.304z"></path>
<path d="M13.627 7.725h-6.978v1.653h6.978v-1.653zM13.627 10.81h-6.978v1.653h6.978v-1.653z"></path>
</symbol>
<symbol id="icon-flash" viewBox="0 0 20 20">
<path d="M6.803 18.998c-0.194-0.127 3.153-7.16 3.038-7.469s-3.665-1.436-3.838-1.979c-0.174-0.543 7.007-8.707 7.196-8.549s-3.129 7.238-3.039 7.469c0.091 0.23 3.728 1.404 3.838 1.979s-7.002 8.676-7.195 8.549z"></path>
</symbol>
<symbol id="icon-info-with-circle" viewBox="0 0 20 20">
<path d="M10 0.4c-5.303 0-9.601 4.298-9.601 9.6 0 5.303 4.298 9.601 9.601 9.601 5.301 0 9.6-4.298 9.6-9.601s-4.299-9.6-9.6-9.6zM10.896 3.866c0.936 0 1.211 0.543 1.211 1.164 0 0.775-0.62 1.492-1.679 1.492-0.886 0-1.308-0.445-1.282-1.182 0-0.621 0.519-1.474 1.75-1.474zM8.498 15.75c-0.64 0-1.107-0.389-0.66-2.094l0.733-3.025c0.127-0.484 0.148-0.678 0-0.678-0.191 0-1.022 0.334-1.512 0.664l-0.319-0.523c1.555-1.299 3.343-2.061 4.108-2.061 0.64 0 0.746 0.756 0.427 1.92l-0.84 3.18c-0.149 0.562-0.085 0.756 0.064 0.756 0.192 0 0.82-0.232 1.438-0.719l0.362 0.486c-1.513 1.512-3.162 2.094-3.801 2.094z"></path>
</symbol>
<symbol id="icon-menu" viewBox="0 0 20 20">
<path d="M16.4 9h-12.8c-0.552 0-0.6 0.447-0.6 1s0.048 1 0.6 1h12.8c0.552 0 0.6-0.447 0.6-1s-0.048-1-0.6-1zM16.4 13h-12.8c-0.552 0-0.6 0.447-0.6 1s0.048 1 0.6 1h12.8c0.552 0 0.6-0.447 0.6-1s-0.048-1-0.6-1zM3.6 7h12.8c0.552 0 0.6-0.447 0.6-1s-0.048-1-0.6-1h-12.8c-0.552 0-0.6 0.447-0.6 1s0.048 1 0.6 1z"></path>
</symbol>
<symbol id="icon-home" viewBox="0 0 32 32">
<path d="M32 18.451l-16-12.42-16 12.42v-5.064l16-12.42 16 12.42zM28 18v12h-8v-8h-8v8h-8v-12l12-9z"></path>
</symbol>
<symbol id="icon-folder-open" viewBox="0 0 32 32">
<path d="M26 30l6-16h-26l-6 16zM4 12l-4 18v-26h9l4 4h13v4z"></path>
</symbol>
<symbol id="icon-coin-dollar" viewBox="0 0 32 32">
<path d="M15 2c-8.284 0-15 6.716-15 15s6.716 15 15 15c8.284 0 15-6.716 15-15s-6.716-15-15-15zM15 29c-6.627 0-12-5.373-12-12s5.373-12 12-12c6.627 0 12 5.373 12 12s-5.373 12-12 12zM16 16v-4h4v-2h-4v-2h-2v2h-4v8h4v4h-4v2h4v2h2v-2h4l-0-8h-4zM14 16h-2v-4h2v4zM18 22h-2v-4h2v4z"></path>
</symbol>
<symbol id="icon-coin-euro" viewBox="0 0 32 32">
<path d="M15 2c-8.284 0-15 6.716-15 15s6.716 15 15 15c8.284 0 15-6.716 15-15s-6.716-15-15-15zM15 29c-6.627 0-12-5.373-12-12s5.373-12 12-12c6.627 0 12 5.373 12 12s-5.373 12-12 12z"></path>
<path d="M20.963 20.136c-0.477-0.278-1.089-0.116-1.367 0.362-0.539 0.927-1.534 1.503-2.596 1.503h-4c-1.304 0-2.415-0.836-2.828-2h4.828c0.552 0 1-0.448 1-1s-0.448-1-1-1h-5v-2h5c0.552 0 1-0.448 1-1s-0.448-1-1-1h-4.828c0.413-1.164 1.524-2 2.828-2h4c1.062 0 2.057 0.576 2.596 1.503 0.278 0.477 0.89 0.639 1.367 0.361s0.639-0.89 0.361-1.367c-0.896-1.54-2.553-2.497-4.325-2.497h-4c-2.415 0-4.435 1.72-4.899 4h-1.101c-0.552 0-1 0.448-1 1s0.448 1 1 1h1v2h-1c-0.552 0-1 0.448-1 1s0.448 1 1 1h1.101c0.465 2.279 2.485 4 4.899 4h4c1.772 0 3.429-0.957 4.325-2.497 0.278-0.477 0.116-1.090-0.362-1.367z"></path>
</symbol>
<symbol id="icon-phone2" viewBox="0 0 32 32">
<path d="M22 20c-2 2-2 4-4 4s-4-2-6-4-4-4-4-6 2-2 4-4-4-8-6-8-6 6-6 6c0 4 4.109 12.109 8 16s12 8 16 8c0 0 6-4 6-6s-6-8-8-6z"></path>
</symbol>
<symbol id="icon-location2" viewBox="0 0 32 32">
<path d="M16 0c-5.523 0-10 4.477-10 10 0 10 10 22 10 22s10-12 10-22c0-5.523-4.477-10-10-10zM16 16.125c-3.383 0-6.125-2.742-6.125-6.125s2.742-6.125 6.125-6.125 6.125 2.742 6.125 6.125-2.742 6.125-6.125 6.125zM12.125 10c0-2.14 1.735-3.875 3.875-3.875s3.875 1.735 3.875 3.875c0 2.14-1.735 3.875-3.875 3.875s-3.875-1.735-3.875-3.875z"></path>
</symbol>
<symbol id="icon-calendar2" viewBox="0 0 32 32">
<path d="M10 12h4v4h-4zM16 12h4v4h-4zM22 12h4v4h-4zM4 24h4v4h-4zM10 24h4v4h-4zM16 24h4v4h-4zM10 18h4v4h-4zM16 18h4v4h-4zM22 18h4v4h-4zM4 18h4v4h-4zM26 0v2h-4v-2h-14v2h-4v-2h-4v32h30v-32h-4zM28 30h-26v-22h26v22z"></path>
</symbol>
<symbol id="icon-mobile" viewBox="0 0 32 32">
<path d="M23 0h-14c-1.65 0-3 1.35-3 3v26c0 1.65 1.35 3 3 3h14c1.65 0 3-1.35 3-3v-26c0-1.65-1.35-3-3-3zM12 1.5h8v1h-8v-1zM16 30c-1.105 0-2-0.895-2-2s0.895-2 2-2 2 0.895 2 2-0.895 2-2 2zM24 24h-16v-20h16v20z"></path>
</symbol>
<symbol id="icon-quotes-left" viewBox="0 0 32 32">
<path d="M7.031 14c3.866 0 7 3.134 7 7s-3.134 7-7 7-7-3.134-7-7l-0.031-1c0-7.732 6.268-14 14-14v4c-2.671 0-5.182 1.040-7.071 2.929-0.364 0.364-0.695 0.751-0.995 1.157 0.357-0.056 0.724-0.086 1.097-0.086zM25.031 14c3.866 0 7 3.134 7 7s-3.134 7-7 7-7-3.134-7-7l-0.031-1c0-7.732 6.268-14 14-14v4c-2.671 0-5.182 1.040-7.071 2.929-0.364 0.364-0.695 0.751-0.995 1.157 0.358-0.056 0.724-0.086 1.097-0.086z"></path>
</symbol>
<symbol id="icon-quotes-right" viewBox="0 0 32 32">
<path d="M25 20c-3.866 0-7-3.134-7-7s3.134-7 7-7 7 3.134 7 7l0.031 1c0 7.732-6.268 14-14 14v-4c2.671 0 5.182-1.040 7.071-2.929 0.364-0.364 0.695-0.75 0.995-1.157-0.357 0.056-0.724 0.086-1.097 0.086zM7 20c-3.866 0-7-3.134-7-7s3.134-7 7-7 7 3.134 7 7l0.031 1c0 7.732-6.268 14-14 14v-4c2.671 0 5.182-1.040 7.071-2.929 0.364-0.364 0.695-0.75 0.995-1.157-0.357 0.056-0.724 0.086-1.097 0.086z"></path>
</symbol>
<symbol id="icon-cogs1" viewBox="0 0 32 32">
<path d="M11.366 22.564l1.291-1.807-1.414-1.414-1.807 1.291c-0.335-0.187-0.694-0.337-1.071-0.444l-0.365-2.19h-2l-0.365 2.19c-0.377 0.107-0.736 0.256-1.071 0.444l-1.807-1.291-1.414 1.414 1.291 1.807c-0.187 0.335-0.337 0.694-0.443 1.071l-2.19 0.365v2l2.19 0.365c0.107 0.377 0.256 0.736 0.444 1.071l-1.291 1.807 1.414 1.414 1.807-1.291c0.335 0.187 0.694 0.337 1.071 0.444l0.365 2.19h2l0.365-2.19c0.377-0.107 0.736-0.256 1.071-0.444l1.807 1.291 1.414-1.414-1.291-1.807c0.187-0.335 0.337-0.694 0.444-1.071l2.19-0.365v-2l-2.19-0.365c-0.107-0.377-0.256-0.736-0.444-1.071zM7 27c-1.105 0-2-0.895-2-2s0.895-2 2-2 2 0.895 2 2-0.895 2-2 2zM32 12v-2l-2.106-0.383c-0.039-0.251-0.088-0.499-0.148-0.743l1.799-1.159-0.765-1.848-2.092 0.452c-0.132-0.216-0.273-0.426-0.422-0.629l1.219-1.761-1.414-1.414-1.761 1.219c-0.203-0.149-0.413-0.29-0.629-0.422l0.452-2.092-1.848-0.765-1.159 1.799c-0.244-0.059-0.492-0.109-0.743-0.148l-0.383-2.106h-2l-0.383 2.106c-0.251 0.039-0.499 0.088-0.743 0.148l-1.159-1.799-1.848 0.765 0.452 2.092c-0.216 0.132-0.426 0.273-0.629 0.422l-1.761-1.219-1.414 1.414 1.219 1.761c-0.149 0.203-0.29 0.413-0.422 0.629l-2.092-0.452-0.765 1.848 1.799 1.159c-0.059 0.244-0.109 0.492-0.148 0.743l-2.106 0.383v2l2.106 0.383c0.039 0.251 0.088 0.499 0.148 0.743l-1.799 1.159 0.765 1.848 2.092-0.452c0.132 0.216 0.273 0.426 0.422 0.629l-1.219 1.761 1.414 1.414 1.761-1.219c0.203 0.149 0.413 0.29 0.629 0.422l-0.452 2.092 1.848 0.765 1.159-1.799c0.244 0.059 0.492 0.109 0.743 0.148l0.383 2.106h2l0.383-2.106c0.251-0.039 0.499-0.088 0.743-0.148l1.159 1.799 1.848-0.765-0.452-2.092c0.216-0.132 0.426-0.273 0.629-0.422l1.761 1.219 1.414-1.414-1.219-1.761c0.149-0.203 0.29-0.413 0.422-0.629l2.092 0.452 0.765-1.848-1.799-1.159c0.059-0.244 0.109-0.492 0.148-0.743l2.106-0.383zM21 15.35c-2.402 0-4.35-1.948-4.35-4.35s1.948-4.35 4.35-4.35 4.35 1.948 4.35 4.35c0 2.402-1.948 4.35-4.35 4.35z"></path>
</symbol>
<symbol id="icon-link" viewBox="0 0 32 32">
<path d="M13.757 19.868c-0.416 0-0.832-0.159-1.149-0.476-2.973-2.973-2.973-7.81 0-10.783l6-6c1.44-1.44 3.355-2.233 5.392-2.233s3.951 0.793 5.392 2.233c2.973 2.973 2.973 7.81 0 10.783l-2.743 2.743c-0.635 0.635-1.663 0.635-2.298 0s-0.635-1.663 0-2.298l2.743-2.743c1.706-1.706 1.706-4.481 0-6.187-0.826-0.826-1.925-1.281-3.094-1.281s-2.267 0.455-3.094 1.281l-6 6c-1.706 1.706-1.706 4.481 0 6.187 0.635 0.635 0.635 1.663 0 2.298-0.317 0.317-0.733 0.476-1.149 0.476z"></path>
<path d="M8 31.625c-2.037 0-3.952-0.793-5.392-2.233-2.973-2.973-2.973-7.81 0-10.783l2.743-2.743c0.635-0.635 1.664-0.635 2.298 0s0.635 1.663 0 2.298l-2.743 2.743c-1.706 1.706-1.706 4.481 0 6.187 0.826 0.826 1.925 1.281 3.094 1.281s2.267-0.455 3.094-1.281l6-6c1.706-1.706 1.706-4.481 0-6.187-0.635-0.635-0.635-1.663 0-2.298s1.663-0.635 2.298 0c2.973 2.973 2.973 7.81 0 10.783l-6 6c-1.44 1.44-3.355 2.233-5.392 2.233z"></path>
</symbol>
<symbol id="icon-eye-blocked" viewBox="0 0 32 32">
<path d="M29.561 0.439c-0.586-0.586-1.535-0.586-2.121 0l-6.318 6.318c-1.623-0.492-3.342-0.757-5.122-0.757-6.979 0-13.028 4.064-16 10 1.285 2.566 3.145 4.782 5.407 6.472l-4.968 4.968c-0.586 0.586-0.586 1.535 0 2.121 0.293 0.293 0.677 0.439 1.061 0.439s0.768-0.146 1.061-0.439l27-27c0.586-0.586 0.586-1.536 0-2.121zM13 10c1.32 0 2.44 0.853 2.841 2.037l-3.804 3.804c-1.184-0.401-2.037-1.521-2.037-2.841 0-1.657 1.343-3 3-3zM3.441 16c1.197-1.891 2.79-3.498 4.67-4.697 0.122-0.078 0.246-0.154 0.371-0.228-0.311 0.854-0.482 1.776-0.482 2.737 0 1.715 0.54 3.304 1.459 4.607l-1.904 1.904c-1.639-1.151-3.038-2.621-4.114-4.323z"></path>
<path d="M24 13.813c0-0.849-0.133-1.667-0.378-2.434l-10.056 10.056c0.768 0.245 1.586 0.378 2.435 0.378 4.418 0 8-3.582 8-8z"></path>
<path d="M25.938 9.062l-2.168 2.168c0.040 0.025 0.079 0.049 0.118 0.074 1.88 1.199 3.473 2.805 4.67 4.697-1.197 1.891-2.79 3.498-4.67 4.697-2.362 1.507-5.090 2.303-7.889 2.303-1.208 0-2.403-0.149-3.561-0.439l-2.403 2.403c1.866 0.671 3.873 1.036 5.964 1.036 6.978 0 13.027-4.064 16-10-1.407-2.81-3.504-5.2-6.062-6.938z"></path>
</symbol>
<symbol id="icon-exit" viewBox="0 0 32 32">
<path d="M24 20v-4h-10v-4h10v-4l6 6zM22 18v8h-10v6l-12-6v-26h22v10h-2v-8h-16l8 4v18h8v-6z"></path>
</symbol>
<symbol id="icon-circle-up" viewBox="0 0 32 32">
<path d="M0 16c0 8.837 7.163 16 16 16s16-7.163 16-16-7.163-16-16-16-16 7.163-16 16zM29 16c0 7.18-5.82 13-13 13s-13-5.82-13-13 5.82-13 13-13 13 5.82 13 13z"></path>
<path d="M22.086 20.914l2.829-2.829-8.914-8.914-8.914 8.914 2.828 2.828 6.086-6.086z"></path>
</symbol>
<symbol id="icon-circle-right" viewBox="0 0 32 32">
<path d="M16 0c-8.837 0-16 7.163-16 16s7.163 16 16 16 16-7.163 16-16-7.163-16-16-16zM16 29c-7.18 0-13-5.82-13-13s5.82-13 13-13 13 5.82 13 13-5.82 13-13 13z"></path>
<path d="M11.086 22.086l2.829 2.829 8.914-8.914-8.914-8.914-2.828 2.828 6.086 6.086z"></path>
</symbol>
<symbol id="icon-circle-down" viewBox="0 0 32 32">
<path d="M32 16c0-8.837-7.163-16-16-16s-16 7.163-16 16 7.163 16 16 16 16-7.163 16-16zM3 16c0-7.18 5.82-13 13-13s13 5.82 13 13-5.82 13-13 13-13-5.82-13-13z"></path>
<path d="M9.914 11.086l-2.829 2.829 8.914 8.914 8.914-8.914-2.828-2.828-6.086 6.086z"></path>
</symbol>
<symbol id="icon-circle-left" viewBox="0 0 32 32">
<path d="M16 32c8.837 0 16-7.163 16-16s-7.163-16-16-16-16 7.163-16 16 7.163 16 16 16zM16 3c7.18 0 13 5.82 13 13s-5.82 13-13 13-13-5.82-13-13 5.82-13 13-13z"></path>
<path d="M20.914 9.914l-2.829-2.829-8.914 8.914 8.914 8.914 2.828-2.828-6.086-6.086z"></path>
</symbol>
<symbol id="icon-paragraph-justify" viewBox="0 0 32 32">
<path d="M0 2h32v4h-32zM0 8h32v4h-32zM0 14h32v4h-32zM0 20h32v4h-32zM0 26h32v4h-32z"></path>
</symbol>
<symbol id="icon-embed" viewBox="0 0 32 32">
<path d="M18 23l3 3 10-10-10-10-3 3 7 7z"></path>
<path d="M14 9l-3-3-10 10 10 10 3-3-7-7z"></path>
</symbol>
<symbol id="icon-embed2" viewBox="0 0 40 32">
<path d="M26 23l3 3 10-10-10-10-3 3 7 7z"></path>
<path d="M14 9l-3-3-10 10 10 10 3-3-7-7z"></path>
<path d="M21.916 4.704l2.171 0.592-6 22.001-2.171-0.592 6-22.001z"></path>
</symbol>
<symbol id="icon-mail4" viewBox="0 0 32 32">
<path d="M16 0c-8.837 0-16 7.163-16 16s7.163 16 16 16 16-7.163 16-16-7.163-16-16-16zM8 8h16c0.286 0 0.563 0.061 0.817 0.177l-8.817 10.286-8.817-10.287c0.254-0.116 0.531-0.177 0.817-0.177zM6 22v-12c0-0.042 0.002-0.084 0.004-0.125l5.864 6.842-5.8 5.8c-0.045-0.167-0.069-0.34-0.069-0.517zM24 24h-16c-0.177 0-0.35-0.024-0.517-0.069l5.691-5.691 2.826 3.297 2.826-3.297 5.691 5.691c-0.167 0.045-0.34 0.069-0.517 0.069zM26 22c0 0.177-0.024 0.35-0.069 0.517l-5.8-5.8 5.865-6.842c0.003 0.041 0.004 0.083 0.004 0.125v12z"></path>
</symbol>
<symbol id="icon-facebook2" viewBox="0 0 32 32">
<path d="M29 0h-26c-1.65 0-3 1.35-3 3v26c0 1.65 1.35 3 3 3h13v-14h-4v-4h4v-2c0-3.306 2.694-6 6-6h4v4h-4c-1.1 0-2 0.9-2 2v2h6l-1 4h-5v14h9c1.65 0 3-1.35 3-3v-26c0-1.65-1.35-3-3-3z"></path>
</symbol>
<symbol id="icon-whatsapp" viewBox="0 0 32 32">
<path d="M27.281 4.65c-2.994-3-6.975-4.65-11.219-4.65-8.738 0-15.85 7.112-15.85 15.856 0 2.794 0.731 5.525 2.119 7.925l-2.25 8.219 8.406-2.206c2.319 1.262 4.925 1.931 7.575 1.931h0.006c0 0 0 0 0 0 8.738 0 15.856-7.113 15.856-15.856 0-4.238-1.65-8.219-4.644-11.219zM16.069 29.050v0c-2.369 0-4.688-0.637-6.713-1.837l-0.481-0.288-4.987 1.306 1.331-4.863-0.313-0.5c-1.325-2.094-2.019-4.519-2.019-7.012 0-7.269 5.912-13.181 13.188-13.181 3.519 0 6.831 1.375 9.319 3.862 2.488 2.494 3.856 5.8 3.856 9.325-0.006 7.275-5.919 13.188-13.181 13.188zM23.294 19.175c-0.394-0.2-2.344-1.156-2.706-1.288s-0.625-0.2-0.894 0.2c-0.262 0.394-1.025 1.288-1.256 1.556-0.231 0.262-0.462 0.3-0.856 0.1s-1.675-0.619-3.188-1.969c-1.175-1.050-1.975-2.35-2.206-2.744s-0.025-0.613 0.175-0.806c0.181-0.175 0.394-0.463 0.594-0.694s0.262-0.394 0.394-0.662c0.131-0.262 0.069-0.494-0.031-0.694s-0.894-2.15-1.219-2.944c-0.319-0.775-0.65-0.669-0.894-0.681-0.231-0.012-0.494-0.012-0.756-0.012s-0.694 0.1-1.056 0.494c-0.363 0.394-1.387 1.356-1.387 3.306s1.419 3.831 1.619 4.1c0.2 0.262 2.794 4.269 6.769 5.981 0.944 0.406 1.681 0.65 2.256 0.837 0.95 0.3 1.813 0.256 2.494 0.156 0.762-0.113 2.344-0.956 2.675-1.881s0.331-1.719 0.231-1.881c-0.094-0.175-0.356-0.275-0.756-0.475z"></path>
</symbol>
<symbol id="icon-github" viewBox="0 0 32 32">
<path d="M16 0.395c-8.836 0-16 7.163-16 16 0 7.069 4.585 13.067 10.942 15.182 0.8 0.148 1.094-0.347 1.094-0.77 0-0.381-0.015-1.642-0.022-2.979-4.452 0.968-5.391-1.888-5.391-1.888-0.728-1.849-1.776-2.341-1.776-2.341-1.452-0.993 0.11-0.973 0.11-0.973 1.606 0.113 2.452 1.649 2.452 1.649 1.427 2.446 3.743 1.739 4.656 1.33 0.143-1.034 0.558-1.74 1.016-2.14-3.554-0.404-7.29-1.777-7.29-7.907 0-1.747 0.625-3.174 1.649-4.295-0.166-0.403-0.714-2.030 0.155-4.234 0 0 1.344-0.43 4.401 1.64 1.276-0.355 2.645-0.532 4.005-0.539 1.359 0.006 2.729 0.184 4.008 0.539 3.054-2.070 4.395-1.64 4.395-1.64 0.871 2.204 0.323 3.831 0.157 4.234 1.026 1.12 1.647 2.548 1.647 4.295 0 6.145-3.743 7.498-7.306 7.895 0.574 0.497 1.085 1.47 1.085 2.963 0 2.141-0.019 3.864-0.019 4.391 0 0.426 0.288 0.925 1.099 0.768 6.354-2.118 10.933-8.113 10.933-15.18 0-8.837-7.164-16-16-16z"></path>
</symbol>
<symbol id="icon-appleinc" viewBox="0 0 32 32">
<path d="M24.734 17.003c-0.040-4.053 3.305-5.996 3.454-6.093-1.88-2.751-4.808-3.127-5.851-3.171-2.492-0.252-4.862 1.467-6.127 1.467-1.261 0-3.213-1.43-5.28-1.392-2.716 0.040-5.221 1.579-6.619 4.012-2.822 4.897-0.723 12.151 2.028 16.123 1.344 1.944 2.947 4.127 5.051 4.049 2.026-0.081 2.793-1.311 5.242-1.311s3.138 1.311 5.283 1.271c2.18-0.041 3.562-1.981 4.897-3.931 1.543-2.255 2.179-4.439 2.216-4.551-0.048-0.022-4.252-1.632-4.294-6.473zM20.705 5.11c1.117-1.355 1.871-3.235 1.665-5.11-1.609 0.066-3.559 1.072-4.713 2.423-1.036 1.199-1.942 3.113-1.699 4.951 1.796 0.14 3.629-0.913 4.747-2.264z"></path>
</symbol>
<symbol id="icon-android1" viewBox="0 0 32 32">
<path d="M28 12c-1.1 0-2 0.9-2 2v8c0 1.1 0.9 2 2 2s2-0.9 2-2v-8c0-1.1-0.9-2-2-2zM4 12c-1.1 0-2 0.9-2 2v8c0 1.1 0.9 2 2 2s2-0.9 2-2v-8c0-1.1-0.9-2-2-2zM7 23c0 1.657 1.343 3 3 3v0 4c0 1.1 0.9 2 2 2s2-0.9 2-2v-4h4v4c0 1.1 0.9 2 2 2s2-0.9 2-2v-4c1.657 0 3-1.343 3-3v-11h-18v11z"></path>
<path d="M24.944 10c-0.304-2.746-1.844-5.119-4.051-6.551l1.001-2.001c0.247-0.494 0.047-1.095-0.447-1.342s-1.095-0.047-1.342 0.447l-1.004 2.009-0.261-0.104c-0.893-0.297-1.848-0.458-2.84-0.458s-1.947 0.161-2.84 0.458l-0.261 0.104-1.004-2.009c-0.247-0.494-0.848-0.694-1.342-0.447s-0.694 0.848-0.447 1.342l1.001 2.001c-2.207 1.433-3.747 3.805-4.051 6.551v1h17.944v-1h-0.056zM13 8c-0.552 0-1-0.448-1-1s0.447-0.999 0.998-1c0.001 0 0.002 0 0.003 0s0.001-0 0.002-0c0.551 0.001 0.998 0.448 0.998 1s-0.448 1-1 1zM19 8c-0.552 0-1-0.448-1-1s0.446-0.999 0.998-1c0 0 0.001 0 0.002 0s0.002-0 0.003-0c0.551 0.001 0.998 0.448 0.998 1s-0.448 1-1 1z"></path>
</symbol>
<symbol id="icon-windows8" viewBox="0 0 32 32">
<path d="M0.011 16l-0.011-9.752 12-1.63v11.382zM14 4.328l15.996-2.328v14h-15.996zM30 18l-0.004 14-15.996-2.25v-11.75zM12 29.495l-11.99-1.644-0.001-9.851h11.991z"></path>
</symbol>
<symbol id="icon-linkedin" viewBox="0 0 32 32">
<path d="M29 0h-26c-1.65 0-3 1.35-3 3v26c0 1.65 1.35 3 3 3h26c1.65 0 3-1.35 3-3v-26c0-1.65-1.35-3-3-3zM12 26h-4v-14h4v14zM10 10c-1.106 0-2-0.894-2-2s0.894-2 2-2c1.106 0 2 0.894 2 2s-0.894 2-2 2zM26 26h-4v-8c0-1.106-0.894-2-2-2s-2 0.894-2 2v8h-4v-14h4v2.481c0.825-1.131 2.087-2.481 3.5-2.481 2.488 0 4.5 2.238 4.5 5v9z"></path>
</symbol>
<symbol id="icon-stackoverflow" viewBox="0 0 32 32">
<path d="M32 20v12h-32v-12h4v8h24v-8zM6 22h20v4h-20zM6.473 17.671l0.866-3.905 19.526 4.328-0.866 3.905zM8.739 9.642l1.69-3.625 18.126 8.452-1.69 3.625zM30.991 11.296l-2.435 3.173-15.867-12.175 1.761-2.294h1.82z"></path>
</symbol>
<symbol id="icon-paypal" viewBox="0 0 32 32">
<path d="M29.063 9.644c-1.494 6.631-6.106 10.131-13.375 10.131h-2.419l-1.681 10.675h-2.025l-0.106 0.688c-0.069 0.456 0.281 0.863 0.738 0.863h5.175c0.613 0 1.131-0.444 1.231-1.050l0.050-0.262 0.975-6.181 0.063-0.337c0.094-0.606 0.619-1.050 1.231-1.050h0.769c5.012 0 8.938-2.038 10.088-7.925 0.431-2.238 0.269-4.137-0.712-5.55z"></path>
<path d="M25.969 2.413c-1.481-1.688-4.163-2.413-7.587-2.413h-9.944c-0.7 0-1.3 0.506-1.406 1.2l-4.144 26.262c-0.081 0.519 0.319 0.988 0.844 0.988h6.144l1.544-9.781-0.050 0.306c0.106-0.694 0.7-1.2 1.4-1.2h2.919c5.731 0 10.219-2.325 11.531-9.063 0.038-0.2 0.075-0.394 0.1-0.581 0.387-2.487 0-4.188-1.35-5.719z"></path>
</symbol>
<symbol id="icon-file-pdf" viewBox="0 0 32 32">
<path d="M26.313 18.421c-0.427-0.42-1.372-0.643-2.812-0.662-0.974-0.011-2.147 0.075-3.38 0.248-0.552-0.319-1.122-0.665-1.568-1.083-1.202-1.122-2.205-2.68-2.831-4.394 0.041-0.16 0.075-0.301 0.108-0.444 0 0 0.677-3.846 0.498-5.146-0.025-0.178-0.040-0.23-0.088-0.369l-0.059-0.151c-0.184-0.425-0.545-0.875-1.111-0.85l-0.341-0.011c-0.631 0-1.146 0.323-1.281 0.805-0.411 1.514 0.013 3.778 0.781 6.711l-0.197 0.478c-0.55 1.34-1.238 2.689-1.846 3.88l-0.079 0.155c-0.639 1.251-1.22 2.313-1.745 3.213l-0.543 0.287c-0.040 0.021-0.97 0.513-1.188 0.645-1.852 1.106-3.079 2.361-3.282 3.357-0.065 0.318-0.017 0.725 0.313 0.913l0.525 0.264c0.228 0.114 0.468 0.172 0.714 0.172 1.319 0 2.85-1.643 4.959-5.324 2.435-0.793 5.208-1.452 7.638-1.815 1.852 1.043 4.129 1.767 5.567 1.767 0.255 0 0.475-0.024 0.654-0.072 0.276-0.073 0.508-0.23 0.65-0.444 0.279-0.42 0.335-0.998 0.26-1.59-0.023-0.176-0.163-0.393-0.315-0.541zM6.614 25.439c0.241-0.658 1.192-1.958 2.6-3.111 0.088-0.072 0.306-0.276 0.506-0.466-1.472 2.348-2.458 3.283-3.106 3.577zM14.951 6.24c0.424 0 0.665 1.069 0.685 2.070s-0.214 1.705-0.505 2.225c-0.241-0.77-0.357-1.984-0.357-2.778 0 0-0.018-1.517 0.177-1.517v0zM12.464 19.922c0.295-0.529 0.603-1.086 0.917-1.677 0.765-1.447 1.249-2.58 1.609-3.511 0.716 1.303 1.608 2.41 2.656 3.297 0.131 0.111 0.269 0.222 0.415 0.333-2.132 0.422-3.974 0.935-5.596 1.558v0zM25.903 19.802c-0.13 0.081-0.502 0.128-0.741 0.128-0.772 0-1.727-0.353-3.066-0.927 0.515-0.038 0.986-0.057 1.409-0.057 0.774 0 1.004-0.003 1.761 0.19s0.767 0.585 0.637 0.667v0z"></path>
<path d="M28.681 7.159c-0.694-0.947-1.662-2.053-2.724-3.116s-2.169-2.030-3.116-2.724c-1.612-1.182-2.393-1.319-2.841-1.319h-15.5c-1.378 0-2.5 1.121-2.5 2.5v27c0 1.378 1.121 2.5 2.5 2.5h23c1.378 0 2.5-1.122 2.5-2.5v-19.5c0-0.448-0.137-1.23-1.319-2.841v0zM24.543 5.457c0.959 0.959 1.712 1.825 2.268 2.543h-4.811v-4.811c0.718 0.556 1.584 1.309 2.543 2.268v0zM28 29.5c0 0.271-0.229 0.5-0.5 0.5h-23c-0.271 0-0.5-0.229-0.5-0.5v-27c0-0.271 0.229-0.5 0.5-0.5 0 0 15.499-0 15.5 0v7c0 0.552 0.448 1 1 1h7v19.5z"></path>
</symbol>
<symbol id="icon-file-word" viewBox="0 0 32 32">
<path d="M19.993 14.872h1.382l-1.594 7.068-2.073-9.938h-3.33l-2.41 9.938-1.807-9.938h-3.481l3.534 15.996h3.401l2.384-9.46 2.133 9.46h3.136l4.051-15.996h-5.326v2.87z"></path>
<path d="M28.681 7.159c-0.694-0.947-1.662-2.053-2.724-3.116s-2.169-2.030-3.116-2.724c-1.612-1.182-2.393-1.319-2.841-1.319h-15.5c-1.378 0-2.5 1.121-2.5 2.5v27c0 1.378 1.121 2.5 2.5 2.5h23c1.378 0 2.5-1.122 2.5-2.5v-19.5c0-0.448-0.137-1.23-1.319-2.841v0zM24.543 5.457c0.959 0.959 1.712 1.825 2.268 2.543h-4.811v-4.811c0.718 0.556 1.584 1.309 2.543 2.268v0zM28 29.5c0 0.271-0.229 0.5-0.5 0.5h-23c-0.271 0-0.5-0.229-0.5-0.5v-27c0-0.271 0.229-0.5 0.5-0.5 0 0 15.499-0 15.5 0v7c0 0.552 0.448 1 1 1h7v19.5z"></path>
</symbol>
<symbol id="icon-html-five" viewBox="0 0 32 32">
<path d="M1.892 0l2.567 28.801 11.524 3.199 11.554-3.204 2.572-28.796h-28.216zM24.52 9.42h-13.517l0.322 3.617h12.874l-0.97 10.844-7.245 2.008-7.237-2.008-0.495-5.547h3.547l0.252 2.82 3.933 1.060 0.009-0.002 3.935-1.062 0.408-4.58h-12.242l-0.953-10.681h17.694l-0.316 3.532z"></path>
</symbol>
<symbol id="icon-html-five2" viewBox="0 0 32 32">
<path d="M1.892 0l2.567 28.801 11.524 3.199 11.554-3.204 2.572-28.796h-28.216zM25.336 26.963l-9.288 2.574v0.015l-0.024-0.007-0.024 0.007v-0.015l-9.288-2.574-2.195-24.609h23.015l-2.195 24.609zM20.336 16.569l-0.408 4.58-3.944 1.065-3.933-1.060-0.252-2.82h-3.547l0.495 5.547 7.252 2.006 7.229-2.006 0.97-10.844h-12.874l-0.322-3.617h13.517l0.316-3.532h-17.694l0.953 10.681z"></path>
</symbol>
<symbol id="icon-css3" viewBox="0 0 32 32">
<path d="M4.762 1.516l-1.074 5.373h21.867l-0.684 3.47h-21.881l-1.059 5.372h21.865l-1.219 6.127-8.813 2.919-7.638-2.919 0.523-2.658h-5.372l-1.278 6.448 12.632 4.834 14.563-4.834 4.805-24.133z"></path>
</symbol>
<symbol id="icon-git" viewBox="0 0 32 32">
<path d="M31.397 14.575l-13.972-13.971c-0.804-0.805-2.109-0.805-2.915 0l-3.246 3.246 2.443 2.443c0.392-0.187 0.83-0.293 1.293-0.293 1.657 0 3 1.343 3 3 0 0.463-0.105 0.902-0.293 1.293l3.999 3.999c0.392-0.187 0.83-0.293 1.293-0.293 1.657 0 3 1.343 3 3s-1.343 3-3 3-3-1.343-3-3c0-0.463 0.105-0.902 0.293-1.293l-3.999-3.999c-0.095 0.046-0.193 0.086-0.293 0.121v8.343c1.165 0.412 2 1.522 2 2.829 0 1.657-1.343 3-3 3s-3-1.343-3-3c0-1.306 0.835-2.417 2-2.829v-8.343c-1.165-0.412-2-1.522-2-2.829 0-0.463 0.105-0.902 0.293-1.293l-2.443-2.443-9.247 9.246c-0.805 0.806-0.805 2.11 0 2.915l13.973 13.971c0.804 0.805 2.109 0.805 2.915 0l13.906-13.906c0.805-0.805 0.805-2.111-0-2.915z"></path>
</symbol>
<symbol id="icon-star-full" viewBox="0 0 32 32">
<path d="M32 12.408l-11.056-1.607-4.944-10.018-4.944 10.018-11.056 1.607 8 7.798-1.889 11.011 9.889-5.199 9.889 5.199-1.889-11.011 8-7.798z"></path>
</symbol>
<symbol id="icon-eye" viewBox="0 0 32 32">
<path d="M16 6c-6.979 0-13.028 4.064-16 10 2.972 5.936 9.021 10 16 10s13.027-4.064 16-10c-2.972-5.936-9.021-10-16-10zM23.889 11.303c1.88 1.199 3.473 2.805 4.67 4.697-1.197 1.891-2.79 3.498-4.67 4.697-2.362 1.507-5.090 2.303-7.889 2.303s-5.527-0.796-7.889-2.303c-1.88-1.199-3.473-2.805-4.67-4.697 1.197-1.891 2.79-3.498 4.67-4.697 0.122-0.078 0.246-0.154 0.371-0.228-0.311 0.854-0.482 1.776-0.482 2.737 0 4.418 3.582 8 8 8s8-3.582 8-8c0-0.962-0.17-1.883-0.482-2.737 0.124 0.074 0.248 0.15 0.371 0.228v0zM16 13c0 1.657-1.343 3-3 3s-3-1.343-3-3 1.343-3 3-3 3 1.343 3 3z"></path>
</symbol>
</defs>
</svg>
